<svg width="158" height="17" viewBox="0 0 158 17" fill="none" xmlns="http://www.w3.org/2000/svg">
<g clip-path="url(#clip0_10015_9754)">
<path d="M0.921875 0.192199C1.11879 0.96377 1.51985 1.66808 2.08292 2.23115C2.646 2.79422 3.3503 3.19528 4.12188 3.3922H9.15045L9.37902 3.43791V16.0551H12.4876V3.48363L12.8076 3.34648H17.8362C18.6056 3.14515 19.3075 2.74262 19.8699 2.18024C20.4323 1.61786 20.8348 0.915906 21.0362 0.146484L0.921875 0.146484V0.192199ZM109.996 0.192199H106.888V16.1008H121.15C121.826 15.8453 122.429 15.4285 122.908 14.8868C123.386 14.345 123.724 13.6946 123.893 12.9922H110.042V0.146484L109.996 0.192199ZM86.0876 3.30077C87.7333 2.84363 89.1047 1.56363 89.4704 0.146484L72.0533 0.192199V9.60934H86.2704V12.9008H75.1162C74.2645 13.1223 73.4696 13.5221 72.784 14.0738C72.0984 14.6254 71.5377 15.3163 71.139 16.1008H89.379V6.50077H75.1162V3.30077H86.0876ZM139.208 16.1008H142.27V9.70077H153.516V16.1008H156.579V6.50077H139.208V16.1008ZM39.9162 3.34648H51.8019C52.584 3.16146 53.3004 2.76519 53.8727 2.20089C54.4451 1.6366 54.8515 0.925951 55.0476 0.146484L36.7162 0.146484C36.9085 0.920246 37.3081 1.62698 37.8719 2.19077C38.4357 2.75456 39.1424 3.1541 39.9162 3.34648ZM39.9162 9.65506H51.8019C52.584 9.47003 53.3004 9.07376 53.8727 8.50946C54.4451 7.94517 54.8515 7.23452 55.0476 6.45506H36.7162C36.9085 7.22882 37.3081 7.93555 37.8719 8.49934C38.4357 9.06313 39.1424 9.46267 39.9162 9.65506ZM39.9162 16.1008H51.8019C52.584 15.9157 53.3004 15.5195 53.8727 14.9552C54.4451 14.3909 54.8515 13.6802 55.0476 12.9008H36.7162C36.9085 13.6745 37.3081 14.3813 37.8719 14.9451C38.4357 15.5088 39.1424 15.9084 39.9162 16.1008ZM141.95 3.34648H153.836C154.61 3.1541 155.317 2.75456 155.88 2.19077C156.444 1.62698 156.844 0.920246 157.036 0.146484L138.75 0.146484C138.943 0.920246 139.342 1.62698 139.906 2.19077C140.47 2.75456 141.177 3.1541 141.95 3.34648Z" fill="#202020"/>
</g>
<defs>
<clipPath id="clip0_10015_9754">
<rect width="156.343" height="16" fill="white" transform="translate(0.921875 0.146484)"/>
</clipPath>
</defs>
</svg>
