<svg width="98" height="33" viewBox="0 0 98 33" fill="none" xmlns="http://www.w3.org/2000/svg">
<path d="M24.3512 11.4496H12.9678V14.8294H21.0416C20.6416 19.5603 16.7019 21.5909 12.9814 21.5909C11.8028 21.5961 10.6349 21.3663 9.54599 20.9149C8.45708 20.4635 7.46895 19.7995 6.63928 18.9618C5.80962 18.1241 5.15505 17.1294 4.71379 16.0358C4.27253 14.9422 4.05342 13.7716 4.06925 12.5923C4.06925 7.47568 8.02799 3.53633 12.9923 3.53633C16.8219 3.53633 19.0786 5.97909 19.0786 5.97909L21.4426 3.52814C21.4426 3.52814 18.4058 0.146484 12.8687 0.146484C5.81768 0.146484 0.363281 6.101 0.363281 12.5322C0.363281 18.8343 5.494 24.9799 13.0469 24.9799C19.6905 24.9799 24.5539 20.4255 24.5539 13.6913C24.5539 12.2702 24.3475 11.4496 24.3475 11.4496H24.3512Z" fill="#202020"/>
<path d="M33.6756 9.0014C29.004 9.0014 25.6562 12.656 25.6562 16.9165C25.6562 21.2416 28.9022 24.9635 33.7301 24.9635C38.0998 24.9635 41.6794 21.6219 41.6794 17.0093C41.6794 11.7326 37.5152 9.00049 33.6756 9.00049V9.0014ZM33.721 12.1365C36.0177 12.1365 38.1944 13.9952 38.1944 16.9893C38.1944 19.9188 36.0268 21.8311 33.7101 21.8311C31.1643 21.8311 29.164 19.7914 29.164 16.9656C29.164 14.1999 31.1461 12.1365 33.7283 12.1365H33.721Z" fill="#202020"/>
<path d="M51.117 9.0014C46.4454 9.0014 43.0977 12.656 43.0977 16.9165C43.0977 21.2416 46.3436 24.9635 51.1715 24.9635C55.5412 24.9635 59.1208 21.6219 59.1208 17.0093C59.1208 11.7326 54.9566 9.00049 51.117 9.00049V9.0014ZM51.1624 12.1365C53.4591 12.1365 55.6358 13.9952 55.6358 16.9893C55.6358 19.9188 53.4682 21.8311 51.1515 21.8311C48.6057 21.8311 46.6054 19.7914 46.6054 16.9656C46.6054 14.1999 48.5875 12.1365 51.1697 12.1365H51.1624Z" fill="#202020"/>
<path d="M68.2238 9.01086C63.936 9.01086 60.5664 12.7683 60.5664 16.986C60.5664 21.7896 64.4733 24.9757 68.1493 24.9757C70.4223 24.9757 71.6316 24.0723 72.5135 23.036V24.61C72.5135 27.3639 70.8424 29.0133 68.3202 29.0133C65.8835 29.0133 64.6615 27.2001 64.2287 26.1721L61.1629 27.4457C62.2503 29.7475 64.4397 32.1466 68.3457 32.1466C72.619 32.1466 75.8576 29.46 75.8576 23.8248V9.49032H72.5263V10.8423C71.4988 9.73232 70.0914 9.01086 68.2257 9.01086H68.2238ZM68.533 12.1405C70.6351 12.1405 72.7936 13.9364 72.7936 17.0033C72.7936 20.1211 70.6387 21.8388 68.4866 21.8388C66.2008 21.8388 64.0742 19.9828 64.0742 17.0324C64.0742 13.9683 66.2836 12.1396 68.533 12.1396V12.1405Z" fill="#202020"/>
<path d="M90.7448 8.99133C86.7006 8.99133 83.3047 12.212 83.3047 16.961C83.3047 21.9885 87.0898 24.9698 91.124 24.9698C94.499 24.9698 96.5793 23.123 97.8067 21.4672L95.0491 19.6312C94.3335 20.7411 93.137 21.8283 91.1412 21.8283C88.8991 21.8283 87.868 20.6001 87.2289 19.4083L97.924 14.9686L97.3785 13.6676C96.3456 11.1202 93.9353 8.99133 90.7457 8.99133H90.7448ZM90.8839 12.0609C92.3414 12.0609 93.3897 12.8361 93.8353 13.7659L86.6924 16.7527C86.3833 14.44 88.5745 12.0609 90.8748 12.0609H90.8839Z" fill="#202020"/>
<path d="M78.1992 24.4973H81.7124V0.973145H78.1992V24.4973Z" fill="#202020"/>
</svg>
