<svg width="40" height="40" viewBox="0 0 40 40" fill="none" xmlns="http://www.w3.org/2000/svg">
<rect width="40" height="40" fill="#CFDFD6"/>
<path d="M14.9415 12.9999C14.9411 13.8142 14.4471 14.547 13.6923 14.8527C12.9376 15.1584 12.0728 14.976 11.5059 14.3915C10.9389 13.807 10.7829 12.9371 11.1115 12.1921C11.44 11.447 12.1875 10.9755 13.0015 10.9999C14.0825 11.0324 14.9419 11.9184 14.9415 12.9999ZM15.0015 16.4799H11.0015V28.9999H15.0015V16.4799ZM21.3215 16.4799H17.3415V28.9999H21.2815V22.4299C21.2815 18.7699 26.0515 18.4299 26.0515 22.4299V28.9999H30.0015V21.0699C30.0015 14.8999 22.9415 15.1299 21.2815 18.1599L21.3215 16.4799Z" fill="#202020"/>
</svg>
