<svg width="127" height="32" viewBox="0 0 127 32" fill="none" xmlns="http://www.w3.org/2000/svg">
<path d="M44.4353 2.69736C44.4353 2.41174 44.3957 2.33769 44.1319 2.31653L42.9473 2.1843V0.967773H47.9599V2.1843L46.6988 2.33769C46.4218 2.38001 46.4218 2.41174 46.4218 2.69736V9.99125C46.4218 13.4108 44.5197 14.9499 41.2642 14.9499C37.6683 14.9499 36.1989 13.2785 36.1989 9.92513V2.69736C36.1989 2.41174 36.1619 2.33769 35.8981 2.31653L34.7109 2.1843V0.967773H39.9635V2.1843L38.7025 2.33769C38.4202 2.37472 38.4017 2.41174 38.4017 2.69736V9.61306C38.4017 12.025 39.2301 13.1093 41.375 13.1093C43.5198 13.1093 44.4458 12.2154 44.4458 9.67125L44.4353 2.69736Z" fill="#202020"/>
<path d="M54.9382 14.7225V13.5272L55.8801 13.4108C56.1439 13.3738 56.1808 13.26 56.1808 13.0326V8.62401C56.1808 7.48418 56.0489 6.53475 54.8459 6.53475C53.8856 6.53475 52.8857 7.06368 52.2658 7.52385V12.9929C52.2658 13.2971 52.2842 13.3367 52.5665 13.3738L53.5638 13.506V14.7225H48.8968V13.4875L49.7991 13.3738C50.0629 13.3367 50.0998 13.2786 50.0998 12.9929V6.87591C50.0998 6.66699 50.0444 6.53475 49.8571 6.47922L48.8203 6.1169L49.0076 4.90037H51.7962L51.9466 5.945L52.0204 5.96616C53.0757 5.24418 54.1864 4.70996 55.5424 4.70996C57.5738 4.70996 58.3468 6.00318 58.3468 8.18765V12.9929C58.3468 13.2971 58.3652 13.3367 58.6475 13.3738L59.6817 13.506V14.7225H54.9382Z" fill="#202020"/>
<path d="M60.4922 14.7227V13.5274L61.6213 13.374C61.8851 13.337 61.9247 13.2788 61.9247 12.9932V6.87613C61.9247 6.66721 61.8667 6.53498 61.6794 6.47944L60.6426 6.11713L60.8325 4.9006H64.0986V12.9932C64.0986 13.2973 64.117 13.337 64.3993 13.374L65.51 13.5062V14.7227H60.4922ZM62.7795 3.03878C61.8746 3.03878 61.3654 2.52572 61.3654 1.61597C61.3654 0.706217 61.8667 0.227539 62.7795 0.227539C63.6923 0.227539 64.1909 0.722085 64.1909 1.61597C64.1909 2.50985 63.6554 3.03878 62.7795 3.03878Z" fill="#202020"/>
<path d="M69.8286 14.7225L66.7341 6.64849C66.6602 6.42105 66.5652 6.38403 66.3383 6.32585L65.5469 6.15394L65.7896 4.90039H70.2349V6.15394L68.9712 6.30733L71.2875 12.6333H71.364L73.6962 6.30733L72.4563 6.15394L72.662 4.90039H76.5402V6.15394L75.8991 6.27031C75.6564 6.30733 75.5244 6.34436 75.4295 6.59295L72.3428 14.7225H69.8286Z" fill="#202020"/>
<path d="M85.1534 14.0587C84.0374 14.6422 82.7977 14.9479 81.5391 14.95C78.0382 14.95 76.8906 12.6888 76.8906 9.76384C76.8906 6.32583 78.8666 4.70996 81.3333 4.70996C83.7077 4.70996 85.3222 5.98467 85.3222 9.29046C85.3222 9.53641 85.3038 10.031 85.2668 10.3906H79.1858C79.2808 12.1572 79.9588 13.2019 81.7844 13.2019C82.7078 13.2019 83.4227 13.0141 84.5519 12.5381L85.1534 14.0587ZM83.1589 8.81442C83.1589 6.96318 82.3121 6.36285 81.2937 6.36285C80.2226 6.36285 79.2993 7.08484 79.2043 8.81442H83.1589Z" fill="#202020"/>
<path d="M86.639 14.7227V13.4876L87.5413 13.3739C87.8051 13.3369 87.8446 13.2787 87.8446 12.9931V6.87608C87.8581 6.79144 87.8406 6.7048 87.7956 6.63197C87.7506 6.55914 87.6809 6.50498 87.5993 6.47938L86.5625 6.11707L86.7524 4.90054H89.5568L89.7626 6.28897L89.8206 6.30748C90.4406 5.49029 91.327 4.7207 92.5881 4.7207C93.0818 4.72529 93.5735 4.78292 94.0549 4.8926V7.9974L92.3612 7.93393L92.137 6.75707C92.1159 6.58517 92.0789 6.54814 91.9101 6.54814C91.1951 6.54814 90.3852 7.17492 90.008 7.53723V12.9746C90.008 13.2787 90.0449 13.3369 90.3298 13.3554L92.0974 13.5062V14.7227H86.639Z" fill="#202020"/>
<path d="M100.68 7.73301L100.474 6.6302C100.472 6.56955 100.451 6.5111 100.414 6.46348C100.376 6.41586 100.324 6.38159 100.266 6.36574C99.8243 6.24203 99.3682 6.17886 98.9098 6.17797C97.7068 6.17797 97.1211 6.61434 97.1211 7.37334C97.1211 8.38095 98.1764 8.60839 99.3635 8.89401C100.849 9.25368 102.529 9.7112 102.529 11.8771C102.529 14.1171 100.683 14.9528 98.5404 14.9528C96.9206 14.9528 95.3403 14.5165 95 14.289V11.7026L96.5618 11.7978L96.7518 12.9562C96.7887 13.1095 96.8072 13.1651 96.976 13.2206C97.5244 13.3961 98.0967 13.4853 98.6723 13.4851C99.8384 13.4851 100.553 13.1439 100.553 12.1628C100.553 11.1049 99.3504 10.9277 98.0867 10.6421C96.6568 10.3195 95.1504 9.86194 95.1504 7.84938C95.1504 5.5512 97.0525 4.69434 99.0865 4.69434C100.166 4.69646 101.236 4.88339 102.252 5.24706V7.81235L100.68 7.73301Z" fill="#202020"/>
<path d="M103.582 14.7227V13.5274L104.711 13.374C104.975 13.337 105.012 13.2788 105.012 12.9932V6.87613C105.012 6.66721 104.957 6.53498 104.769 6.47944L103.732 6.11713L103.92 4.9006H107.178V12.9932C107.178 13.2973 107.196 13.337 107.479 13.374L108.589 13.5062V14.7227H103.582ZM105.859 3.03878C104.957 3.03878 104.447 2.52572 104.447 1.61597C104.447 0.706217 104.957 0.227539 105.859 0.227539C106.761 0.227539 107.273 0.722085 107.273 1.61597C107.273 2.50985 106.745 3.03878 105.859 3.03878Z" fill="#202020"/>
<path d="M116.382 14.2809C115.51 14.6958 114.561 14.9219 113.596 14.9447C111.62 14.9447 110.792 14.0719 110.792 12.1916V6.63788C110.792 6.52416 110.792 6.44747 110.641 6.44747H109.285V5.09871C110.755 4.9083 111.338 3.90334 111.583 2.23193H112.957V4.69937C112.957 4.83425 112.957 4.88978 113.108 4.88978H115.836V6.44747H112.957V11.6362C112.957 12.8157 113.258 13.2521 114.311 13.2521C114.871 13.234 115.424 13.1251 115.949 12.9295L116.382 14.2809Z" fill="#202020"/>
<path d="M123.609 14.7226L123.422 13.6013L123.367 13.5828C122.936 14.0243 122.42 14.3731 121.85 14.6082C121.28 14.8433 120.669 14.9596 120.053 14.9501C117.679 14.9501 117.359 13.3183 117.359 12.2526C117.359 10.3537 118.528 9.44132 120.823 9.25091L123.216 9.0605V8.09256C123.216 6.89719 123.008 6.24132 121.559 6.24132C120.523 6.24132 119.826 6.31802 119.826 7.62975L117.792 7.43934C117.792 5.00628 119.995 4.70215 121.596 4.70215C124.327 4.70215 125.342 5.49554 125.342 8.10314V12.9931C125.342 13.2972 125.361 13.3369 125.643 13.3739L126.567 13.5061V14.7226H123.609ZM122.554 4.00926L119.232 1.27207L120.523 0L123.425 3.19207L122.554 4.00926ZM123.213 10.4489L121.425 10.5997C120.011 10.7345 119.578 11.1286 119.578 12.0436C119.578 12.9587 120.011 13.2602 120.784 13.2602C121.707 13.2602 122.649 12.6889 123.213 12.1203V10.4489Z" fill="#202020"/>
<path d="M42.1395 31.7753L41.9628 30.6592L41.8467 30.6407C41.4138 31.0869 40.8931 31.4381 40.3177 31.6721C39.7424 31.9061 39.1248 32.0178 38.5041 32.0001C36.2432 32.0001 34.75 30.6037 34.75 27.0731C34.75 23.3151 36.5967 21.8235 38.8761 21.8235C39.9078 21.7986 40.9217 22.0953 41.7781 22.6724V19.4645C41.7906 19.3796 41.7703 19.2931 41.7212 19.2228C41.6722 19.1525 41.5981 19.1036 41.5143 19.0863L40.3957 18.7267L40.5909 17.5181H43.9704V30.0563C43.9704 30.3577 43.9915 30.3948 44.287 30.4344L45.2473 30.5667V31.7753H42.1395ZM41.728 24.4681C41.0863 23.9262 40.2863 23.6079 39.4486 23.561C37.7602 23.561 37.0901 24.9971 37.0901 27.0176C37.0901 29.3396 37.8182 30.2255 39.1346 30.2255C40.0976 30.2255 41.0394 29.6596 41.728 28.9614V24.4681Z" fill="#202020"/>
<path d="M46.2109 31.7751V30.585L47.3902 30.4343C47.654 30.3946 47.7041 30.3391 47.7041 30.0561V23.9735C47.7041 23.7645 47.6461 23.635 47.4403 23.5768L46.3692 23.2197L46.5645 22.0138H49.9624V30.0561C49.9624 30.3576 49.9835 30.3946 50.2764 30.4343L51.4372 30.5665V31.7751H46.2109ZM48.5853 20.1626C47.6435 20.1626 47.1132 19.6521 47.1132 18.745C47.1132 17.8379 47.6408 17.3672 48.5853 17.3672C49.5298 17.3672 50.06 17.8591 50.06 18.745C50.06 19.631 49.5113 20.1626 48.5879 20.1626H48.5853Z" fill="#202020"/>
<path d="M69.3709 26.7715C69.1361 26.79 69.057 26.8456 69.057 27.036V31.0955C67.5638 31.7752 65.5983 32 63.9679 32C58.6045 32 56.7578 28.9613 56.7578 24.9018C56.7578 20.8423 59.1744 17.8591 64.1262 17.8591C65.5403 17.8591 67.3686 18.1976 68.5663 18.954V22.5216L66.3845 22.3709L66.0917 20.673C66.031 20.4086 65.9518 20.3319 65.7751 20.2948C65.1848 20.1402 64.578 20.0576 63.9679 20.0489C61.4353 20.0489 59.921 21.9001 59.921 24.8647C59.921 27.9801 61.2955 29.8287 64.1051 29.8287C64.652 29.8259 65.1979 29.7817 65.7382 29.6965C65.9518 29.6595 66.0521 29.6039 66.0521 29.358V26.8852H63.8703L64.1341 25.1848H70.1624V26.6948L69.3709 26.7715Z" fill="#202020"/>
<path d="M79.9964 31.0374C78.7406 31.6515 77.3651 31.9802 75.9679 32.0001C72.1743 32.0001 70.8789 29.7363 70.8789 26.7902C70.8789 23.3733 73.058 21.7495 75.7516 21.7495C78.3449 21.7495 80.0729 23.0507 80.0729 26.3168C80.0729 26.5442 80.0545 27.2054 80.0334 27.5836H74.0236C74.1239 28.9244 74.7306 29.8103 76.3426 29.8103C77.1103 29.8103 77.9255 29.6411 79.2709 29.1677L79.9964 31.0374ZM77.1683 25.7879C77.1472 24.2037 76.4956 23.8017 75.7041 23.8017C74.9127 23.8017 74.1714 24.254 74.0553 25.8011L77.1683 25.7879Z" fill="#202020"/>
<path d="M88.4257 31.7753V25.6767C88.4257 24.7696 88.3677 24.0133 87.3705 24.0133C86.6396 24.0578 85.9342 24.299 85.3285 24.7115V29.7733C85.3285 30.0748 85.347 30.1118 85.6425 30.1515L86.5869 30.2837V31.7753H81.176V30.2652L82.0598 30.1515C82.3368 30.1118 82.3738 30.0562 82.3738 29.7733V24.2196C82.3738 24.0106 82.3157 23.8784 82.11 23.8229L81.0547 23.4632L81.2921 21.9346H84.7217L84.88 22.9158L84.9565 22.9554C85.9526 22.1955 87.1637 21.7723 88.4152 21.7468C90.5574 21.7468 91.3831 22.8787 91.3831 24.9548V29.7706C91.3831 30.0721 91.4016 30.1091 91.6971 30.1488L92.6785 30.281V31.7726L88.4257 31.7753Z" fill="#202020"/>
<path d="M93.457 26.9224C93.457 23.7885 95.1666 21.7495 98.7624 21.7495C102.358 21.7495 103.809 23.8255 103.809 26.7135C103.809 29.9241 102.121 32.0027 98.5065 32.0027C94.8922 32.0027 93.457 29.8844 93.457 26.9224ZM100.707 26.8087C100.707 24.5793 99.9997 23.7885 98.7228 23.7885C97.4459 23.7885 96.5595 24.5608 96.5595 26.8272C96.5595 29.0936 97.3272 30.0193 98.6437 30.0193C99.9601 30.0193 100.707 29.1677 100.707 26.8087Z" fill="#202020"/>
<path d="M108.369 31.7752L105.253 23.9577C105.155 23.7303 105.076 23.6932 104.841 23.6377L104.016 23.4658L104.322 21.9504H109.645V23.479L108.39 23.6298L110.392 29.0116H110.529L112.613 23.6166L111.337 23.4658L111.585 21.9504H116.122V23.479L115.415 23.5928C115.151 23.6509 115.022 23.688 114.924 23.9128L111.801 31.7885L108.369 31.7752Z" fill="#202020"/>
<path d="M122.885 31.7753L122.688 30.7544L122.59 30.7359C122.152 31.1575 121.635 31.4867 121.068 31.7038C120.501 31.921 119.896 32.0217 119.29 32C116.815 32 116.422 30.3762 116.422 29.2073C116.422 27.3191 117.641 26.449 120.094 26.2982L122.355 26.1475V25.1081C122.355 24.2222 122.258 23.6166 121.036 23.6166C120.092 23.6166 119.601 23.7488 119.601 24.8834L116.831 24.6559C116.831 22.1065 119.247 21.7468 121.052 21.7468C124.038 21.7468 125.239 22.5191 125.239 25.1637V29.7521C125.239 30.0536 125.257 30.0906 125.553 30.1303L126.494 30.281V31.7726L122.885 31.7753ZM122.358 27.7158L121.02 27.8083C119.862 27.885 119.45 28.168 119.45 28.9243C119.45 29.6807 119.92 29.961 120.569 29.961C121.219 29.9166 121.842 29.6801 122.358 29.2814V27.7158Z" fill="#202020"/>
<path d="M12.8436 29.7043C10.8491 29.7048 8.89926 29.1124 7.24069 28.0019C5.58213 26.8915 4.28935 25.3129 3.52585 23.4658C2.76236 21.6188 2.56246 19.5862 2.95143 17.6253C3.34041 15.6643 4.30078 13.863 5.71109 12.4493C7.1214 11.0355 8.91828 10.0728 10.8745 9.68286C12.8306 9.29294 14.8582 9.49333 16.7008 10.2587C18.5433 11.024 20.1181 12.32 21.2258 13.9826C22.3336 15.6452 22.9246 17.5998 22.924 19.5992C22.9205 22.2782 21.8574 24.8464 19.9677 26.7407C18.078 28.635 15.516 29.7008 12.8436 29.7043ZM12.8436 10.0706C10.9651 10.0706 9.12892 10.629 7.56707 11.6751C6.00523 12.7213 4.78792 14.2082 4.06908 15.9479C3.35024 17.6875 3.16216 19.6018 3.52862 21.4486C3.89508 23.2955 4.79962 24.9919 6.12786 26.3234C7.4561 27.6549 9.14838 28.5616 10.9907 28.929C12.833 29.2963 14.7426 29.1078 16.4781 28.3872C18.2135 27.6666 19.6968 26.4463 20.7404 24.8807C21.784 23.315 22.341 21.4743 22.341 19.5913C22.3361 17.0677 21.3339 14.6489 19.5539 12.8645C17.7738 11.0801 15.3609 10.0755 12.8436 10.0706Z" fill="#202020"/>
<path d="M12.8038 16.738H12.511C12.4998 16.738 12.489 16.7336 12.4811 16.7256C12.4732 16.7177 12.4687 16.7069 12.4688 16.6957C12.4694 16.685 12.4742 16.6749 12.482 16.6675C12.4899 16.6601 12.5002 16.656 12.511 16.656H12.8012L13.094 16.6402L13.2971 16.6111L13.3657 16.5952C13.3766 16.5928 13.3879 16.5948 13.3973 16.6008C13.4067 16.6067 13.4133 16.6161 13.4159 16.627C13.4174 16.6323 13.4178 16.638 13.417 16.6436C13.4163 16.6491 13.4143 16.6545 13.4113 16.6592C13.4083 16.664 13.4044 16.668 13.3997 16.6711C13.395 16.6742 13.3897 16.6763 13.3842 16.6772L13.313 16.6931L13.1019 16.7222H13.0043L12.8038 16.738Z" fill="#202020"/>
<path d="M9.23806 21.6516H9.17211L9.09296 21.6252L9.0402 21.5988L8.98216 21.5617L8.88719 21.4692L8.80276 21.3502L8.77902 21.3078L8.75 21.2153V21.1571V21.1042L8.79221 21.0249L8.84761 20.9588L8.95842 20.8662L9.0745 20.8027L9.14573 20.7763V20.7102L9.17211 20.6652L9.22223 20.6282H9.25917H9.29874H9.33831L9.4412 20.644L9.61268 20.6758L9.63379 20.7842L9.66545 20.8794L9.7657 21.1254L9.82638 21.2576L9.92663 21.5221H9.81055H9.68391L9.52562 21.5644L9.28555 21.6649L9.23806 21.6516ZM9.25917 20.7392V20.7578V20.8107L9.27236 20.8688L9.14309 20.8953L9.04811 20.9402L8.97952 20.9905L8.93203 21.0328L8.85553 21.1439V21.1915L8.91093 21.3052L8.96369 21.3766L9.04284 21.4507L9.12726 21.5009L9.1853 21.5194H9.22751H9.28819L9.51771 21.4163L9.65489 21.3845H9.74459L9.70766 21.2867L9.65753 21.1571L9.55464 20.8926L9.51243 20.7525L9.30138 20.7207L9.25917 20.7392Z" fill="#202020"/>
<path d="M14.0878 16.4735L14.0219 16.4709L13.9559 16.4841L13.8794 16.4947L13.7792 16.5158L13.6974 16.5396L13.605 16.5767L13.547 16.6005L13.5074 16.619L13.4784 16.6296H13.4573L13.4388 16.6216L13.4204 16.6058L13.4098 16.582L13.394 16.537L13.3861 16.4709V16.3968L13.3966 16.3069L13.4204 16.1879L13.4599 16.0557L13.5707 15.6749L13.5971 15.5056L13.5998 15.3866L13.5892 15.2808L13.5734 15.2094L13.5365 15.1274L13.5048 15.0851L13.4679 15.0507L13.4283 15.0269L13.3782 15.0031L13.336 14.9925L13.2832 14.9846H13.2331L13.1592 14.9899L13.08 14.9978H13.0194L12.9587 15.0005H12.898L12.803 14.9952L12.7476 14.9925L12.6896 14.9952L12.6263 15.0031L12.5999 15.011L12.5656 15.0243L12.5339 15.0401L12.5128 15.056L12.4865 15.0745L12.468 15.0957L12.4442 15.1248L12.4284 15.1539L12.402 15.2068L12.3862 15.2623L12.3757 15.3311L12.373 15.3892L12.3757 15.5215L12.3915 15.6246L12.4179 15.7568L12.4548 15.8944L12.4812 15.9816L12.5234 16.098L12.5524 16.1985L12.5709 16.3096L12.5682 16.4391L12.5603 16.5317L12.4891 16.6481L12.4337 16.6904H12.3677L12.2991 16.6877H12.2226L12.1567 16.693L12.0195 16.6983L11.943 16.7089L11.8375 16.7301L11.7188 16.7618L11.7926 16.6877L11.8955 16.5555L11.943 16.4603L12.0169 16.2937L12.0723 16.1218L12.1224 15.8864L12.1409 15.6854L12.1382 15.5532L12.1435 15.3734L12.1778 15.1909L12.249 14.9793L12.3018 14.8577L12.4733 14.8391L12.65 14.8206L12.8215 14.8127L12.9534 14.8101L13.2436 14.8127L13.5417 14.8365L13.7475 14.8577L13.7633 14.9396L13.8214 15.2173L13.8821 15.4924L13.9005 15.6325L13.9084 15.7172L13.9111 15.86L13.9084 15.9129L13.9005 15.9763L13.8952 16.0319L13.89 16.0821L13.8926 16.1482L13.9058 16.2249L13.9322 16.2937L13.9665 16.3519L14.0192 16.4048L14.0878 16.4735Z" fill="#202020"/>
<path d="M12.5096 16.7377C12.5035 16.738 12.4973 16.7366 12.4918 16.7338C12.4863 16.7311 12.4815 16.7269 12.478 16.7219C12.4706 16.714 12.4664 16.7036 12.4664 16.6928C12.4664 16.6819 12.4706 16.6715 12.478 16.6637L12.5492 16.5447V16.4468V16.3146L12.5308 16.2009L12.5017 16.1004L12.4305 15.8994L12.3962 15.7619L12.3672 15.6323V15.5291V15.3995L12.3857 15.3387V15.2726L12.4015 15.2197L12.4411 15.1377L12.4806 15.0928L12.5255 15.0584L12.5888 15.0293H12.6125H12.6759H12.7313H12.8869H13.0663H13.2167H13.2668L13.3565 15.0478L13.4066 15.069L13.4409 15.0901L13.4779 15.1245L13.5069 15.1615L13.5465 15.2409L13.5623 15.3096V15.4154V15.5344L13.5385 15.701L13.3855 16.23L13.3618 16.3516V16.4442V16.5209V16.5896L13.3776 16.6372L13.3934 16.661C13.3982 16.6713 13.399 16.683 13.3956 16.6937C13.3921 16.7045 13.3848 16.7136 13.375 16.7192C13.3651 16.7239 13.3539 16.7246 13.3436 16.7211C13.3332 16.7177 13.3246 16.7104 13.3196 16.7007L13.3011 16.669L13.2826 16.6055V16.5262V16.3966V16.2987L13.309 16.1691L13.3512 16.0316L13.4594 15.6534L13.4831 15.4974V15.389V15.2964L13.4673 15.2382L13.4409 15.1721L13.4198 15.1457L13.3934 15.1245L13.3697 15.1086L13.3117 15.0743H13.2299L12.8948 15.0901H12.7392H12.6943L12.6231 15.106L12.5624 15.1351L12.5334 15.1642L12.507 15.2012L12.4885 15.2462V15.2858L12.4754 15.3969V15.5159V15.6138L12.5017 15.7381L12.5624 15.9549L12.6046 16.0713L12.6363 16.1797L12.6547 16.3014V16.4468V16.5552C12.6563 16.5613 12.6563 16.5677 12.6547 16.5738L12.573 16.706V16.7192H12.5545C12.5505 16.7272 12.5438 16.7335 12.5355 16.7369C12.5273 16.7403 12.5181 16.7406 12.5096 16.7377Z" fill="#202020"/>
<path d="M12.8856 16.4178L12.7642 16.3966L12.6534 16.3464L12.5769 16.2855C12.5707 16.2807 12.5655 16.2746 12.5618 16.2676C12.558 16.2607 12.5557 16.253 12.5549 16.2451C12.5542 16.2372 12.5551 16.2293 12.5575 16.2218C12.56 16.2143 12.5639 16.2073 12.5691 16.2014C12.5743 16.1954 12.5807 16.1906 12.5878 16.1872C12.595 16.1838 12.6027 16.1819 12.6106 16.1816C12.6185 16.1813 12.6264 16.1827 12.6337 16.1855C12.6411 16.1884 12.6478 16.1927 12.6534 16.1983L12.7352 16.2591L12.7985 16.2882H12.8328H12.8882H12.9568L13.0702 16.2565L13.1256 16.2326L13.2074 16.1877L13.2892 16.1322C13.3017 16.1268 13.3156 16.126 13.3286 16.1299C13.3416 16.1337 13.3529 16.142 13.3604 16.1534C13.3679 16.1647 13.3712 16.1783 13.3698 16.1918C13.3684 16.2053 13.3623 16.2179 13.3525 16.2274L13.2681 16.2855L13.1125 16.3649L13.0439 16.386L12.9726 16.4019L12.8856 16.4178Z" fill="#202020"/>
<path d="M12.2487 14.6803L12.1432 14.6512L12.064 14.6036L11.9954 14.5243L11.9506 14.4132L11.9453 14.2995L11.9691 14.2149L12.0034 14.1514L12.0614 14.0879L12.1168 14.0483L12.1933 14.0165L12.2566 14.0059L12.3648 14.0007L12.465 13.9689L12.5468 13.9293L12.6233 13.8816L12.684 13.8288L12.7289 13.7706L12.7816 13.6939L12.7974 13.678L12.8687 13.6278L12.9109 13.6066L13.0138 13.5854L13.0876 13.5907L13.18 13.6225L13.2459 13.6648L13.2908 13.7124L13.3304 13.7706L13.3356 13.7891L13.4438 13.8869L13.5309 13.9425L13.5889 13.9689L13.6522 13.9901L13.7366 14.0059L13.8395 14.0112L13.9002 14.0297L13.9925 14.0853L14.0453 14.1408L14.0901 14.2175L14.1086 14.2836L14.1139 14.3497L14.0981 14.445L14.0664 14.5137L14.0216 14.5745L13.9741 14.6169L13.916 14.6512L13.858 14.6697L13.8131 14.6777L13.8079 14.683L13.8052 14.7094L13.8026 14.7412L13.7894 14.7861L13.7762 14.8152L13.7445 14.8231L13.5968 14.8073L13.4095 14.7835L13.2565 14.7702H13.0111L12.779 14.7676L12.5547 14.7914L12.3806 14.802L12.3041 14.8178L12.2804 14.8099L12.2698 14.7967L12.2619 14.7729L12.254 14.7412L12.2487 14.6803Z" fill="#202020"/>
<path d="M11.4443 3.91665H0.511719V6.69615H11.4443V9.29317H14.217V6.69615H25.1496L25.1549 3.91665H14.217V1.32227H11.4443V3.91665Z" fill="#202020"/>
<path d="M25.1509 9.20864V9.02881H0.515625V10.4728V11.4275L0.53673 12.5171L0.576303 13.6754L0.636981 14.8391L0.724041 15.9472L0.84012 16.9495L0.98522 17.846L1.15934 18.6394L1.35456 19.372L1.57089 20.0543L1.80569 20.6758L2.06951 21.2655L2.33333 21.8367L2.59715 22.4L2.88734 22.966L3.18546 23.5372L3.52842 24.1058L3.90304 24.6797L4.31987 25.2615L4.78419 25.8513L5.31183 26.4569L5.88959 27.0758L6.54385 27.7052L7.28518 28.3452L8.13204 28.9905L9.08442 29.6199L10.1819 30.2678L11.4245 30.9105L12.8306 31.5478L14.2341 30.921L15.4767 30.2784L16.5742 29.6199L17.5371 28.972L18.384 28.3267L19.1253 27.6867L19.7743 27.0678L20.3573 26.4463L20.885 25.8407L21.3493 25.251L21.7661 24.6691L22.1434 24.0953L22.4732 23.5372L22.7845 22.9739L23.0747 22.408L23.3385 21.8447L23.6023 21.2734L23.8503 20.6837L24.0851 20.0622L24.3014 19.3931L24.4966 18.6605L24.6681 17.8672L24.8132 16.9706L24.9319 15.9683L25.019 14.8602L25.0797 13.6966L25.1166 12.5382L25.1377 11.4486V10.4939V9.20864H25.1509ZM12.8306 28.7048C10.9843 28.7054 9.17937 28.157 7.64402 27.1291C6.10867 26.1011 4.91191 24.6398 4.20513 22.93C3.49834 21.2202 3.31328 19.3387 3.67334 17.5234C4.03341 15.7081 4.92243 14.0407 6.22795 12.732C7.53347 11.4232 9.19685 10.5321 11.0077 10.1711C12.8185 9.81017 14.6955 9.99568 16.4011 10.7042C18.1068 11.4127 19.5645 12.6124 20.5899 14.1515C21.6153 15.6906 22.1624 17.5 22.1618 19.3508C22.1618 21.8316 21.1787 24.2109 19.4288 25.9651C17.6789 27.7193 15.3054 28.7048 12.8306 28.7048Z" fill="#202020"/>
<path d="M12.7731 31.8467L11.2984 31.1776L10.0479 30.5296L8.94248 29.8843L7.97163 29.2311L7.11159 28.562L6.35971 27.9167L5.70016 27.2794L5.11449 26.6552L4.58685 26.0443L4.11726 25.4467L3.7057 24.8595L3.32581 24.2804L2.98284 23.7065L2.66626 23.1352L2.36287 22.5772L1.83524 21.4348L1.57142 20.8397L1.33398 20.2129L1.11765 19.5359L0.917152 18.7954L0.756224 17.9835L0.611124 17.0791L0.492406 16.0662L0.402708 14.9501L0.34203 13.7812L0.302457 12.6202L0.273438 10.5786V9.80632L0.310372 0.933594H25.2649V9.81161V11.5306L25.2438 12.6202L25.2042 13.7812L25.1435 14.9475L25.0512 16.0556L24.9325 17.0632L24.7874 17.9676L24.6159 18.7769L24.418 19.5174L24.2017 20.1944L23.9643 20.8238L23.7004 21.4215L23.1728 22.5667L22.8826 23.1326L22.5687 23.7012L22.2231 24.2751L21.8458 24.8595L21.4237 25.4467L20.9567 26.0443L20.4291 26.6552L19.8434 27.2794L19.1865 27.9167L18.4557 28.562L17.601 29.2126L16.609 29.8685L15.5036 30.5217L14.2505 31.1696L12.7731 31.8467ZM0.779967 1.3964L0.735118 10.5786L0.764138 12.6176L0.803711 13.7521L0.864389 14.9131L0.951449 16.0133L1.06753 17.0024L1.21263 17.8883L1.38147 18.6817L1.57142 19.4037L1.78511 20.0595L2.01463 20.6678L2.25735 21.247L2.78498 22.3709L3.0699 22.929L3.37857 23.4843L3.71362 24.0424L4.08296 24.6083L4.49452 25.1795L4.95092 25.7614L5.46009 26.3564L6.02994 26.9647L6.67365 27.5835L7.40443 28.2129L8.23545 28.8476L9.18519 29.485L10.2774 30.1224L11.5068 30.7597L12.781 31.3362L14.0658 30.7544L15.2899 30.1144L16.3716 29.4744L17.3213 28.8371L18.155 28.2024L18.8831 27.5729L19.511 26.9541L20.0782 26.3458L20.59 25.7508L21.0438 25.169L21.4633 24.5951L21.8326 24.0318L22.1677 23.4738L22.4737 22.9184L22.7612 22.3604L23.2889 21.2364L23.5369 20.6546L23.7638 20.0437L23.9774 19.3878L24.1674 18.6711L24.3362 17.8777L24.4787 16.9971L24.5948 16.008L24.6818 14.9105L24.7399 13.7521L24.7874 12.6043L24.8085 10.5786V9.80632V1.39111L0.779967 1.3964Z" fill="#202020"/>
<path d="M11.0333 17.7402C11.0026 17.74 10.9732 17.7277 10.9516 17.7058C10.9325 17.6849 10.9219 17.6575 10.9219 17.6291C10.9219 17.6007 10.9325 17.5734 10.9516 17.5524L11.5794 16.759L11.7588 16.6797L12.0227 16.6374H12.1255H12.8299L13.3233 16.5924L14.0277 16.3967L14.1464 16.4126L14.1912 16.4338L14.2308 16.4628L14.302 16.5316L14.5184 16.8278L14.6318 17.0156C14.6395 17.0317 14.6435 17.0493 14.6435 17.0671C14.6435 17.085 14.6395 17.1026 14.6318 17.1187C14.6246 17.1354 14.6137 17.1502 14.6 17.1621C14.5863 17.174 14.5701 17.1827 14.5527 17.1875L13.3708 17.4757L12.735 17.6H12.45L11.7272 17.5789L11.3763 17.5974L11.1969 17.6423L11.1441 17.6714L11.094 17.7111C11.0779 17.7277 11.0564 17.738 11.0333 17.7402ZM12.4105 16.8648L11.7245 16.9389L11.6454 17.0023L11.4264 17.2668L11.3499 17.3752L11.5794 17.3541H11.7377L12.4606 17.3752H12.7244L13.3338 17.2536L14.3574 17.005L14.2361 16.8172L14.0831 16.6347H14.0277H13.9723L13.6399 16.7379L13.4446 16.7934L13.1122 16.8516L12.8036 16.8675L12.4105 16.8648Z" fill="#202020"/>
<path d="M11.0846 20.422L10.9896 21.3265L10.9079 22.2415L10.7628 23.5638L10.6229 24.4154L10.5095 24.984L10.375 25.5473L10.2167 26.1159L10.1296 26.547L10.0373 27.0759L9.97659 27.4541L9.92383 27.8217L15.9916 27.8719L15.7278 26.777L15.617 26.3089L15.5326 25.936L15.435 25.4547L15.3743 25.0527L15.2925 24.0663L15.2661 23.1354L15.2503 22.3737V21.8765V21.702L15.1949 21.7496L15.0551 21.903L14.9311 22.0167L14.7728 22.178L14.6039 20.3453L14.6884 20.139L14.8678 21.9215L15.0524 21.7152L15.3163 21.3846L15.4693 21.1942L15.6355 20.9694L15.7146 20.7896L15.8201 20.4775L15.8887 20.2422L15.9336 20.0306V19.8349L15.8861 19.4223L15.7674 19.0838L15.5168 18.5126L15.274 17.9836L15.2213 17.9017L14.8862 17.4812L14.5406 17.0845L14.4747 17.103L13.3508 17.3674L12.9182 17.4759L12.715 17.5076H12.4512L12.0555 17.4865L11.7758 17.4732H11.5753L11.3616 17.4944L11.2482 17.5208L11.1506 17.5552L11.0925 17.587L11.0239 17.6372L10.9765 17.6901L10.9211 17.7589L10.863 17.8541L10.8155 17.9413L10.7496 18.0815L10.6836 18.2481L10.5755 18.5602L10.4831 18.8537L10.3538 19.2187L10.2853 19.3536L10.1481 19.5651L9.98714 19.7899L9.85787 19.9724L9.74707 20.1443L9.66265 20.2898L9.59142 20.459L9.57031 20.541V20.6098V20.6468V20.6812V20.7208L9.58614 20.779L9.61516 20.861L9.64946 20.9509L9.6732 21.0038L9.70486 21.0779L9.74971 21.1731L9.79719 21.2789L9.83941 21.3741L9.86051 21.4322L9.87898 21.5169V21.5962L9.908 21.7205L9.92383 21.8184L9.9423 21.9241L9.97923 22.0564L9.99242 22.0908L10.0188 22.1384L10.0399 22.1648L10.0689 22.1913H10.1006H10.1428H10.1745H10.2193L10.251 22.1727L10.2826 22.1516L10.309 22.1304L10.3538 22.0855L10.4145 22.0088L10.4778 21.9136L10.5464 21.7919L10.5939 21.6941L10.7285 21.4217L10.8182 21.1572L10.9211 20.8266L10.9712 20.3929L11.0477 19.7899L11.1005 19.4276L11.2113 18.777L11.3141 18.8194L11.1981 19.5704L11.0846 20.422ZM13.8864 18.9066L14.8941 19.1711L14.5749 20.2792H14.443H14.2372H14.1291H14.0605H14.0104H13.9708H13.9259H13.8996H13.8679H13.823L13.794 20.3241V20.3638V20.3982L13.8099 20.4246L13.8257 20.4432L13.8547 20.4696L13.8916 20.496L13.9866 20.5542H13.9101H13.8151H13.7017H13.6014L13.4933 20.5727L13.3798 20.5436L13.8864 18.9066ZM13.3746 20.7579V20.7314L13.3878 20.7076L13.4062 20.6865L13.4326 20.6679L13.488 20.6468H13.5698H13.6225L13.7096 20.6283H13.8204H13.918H13.9998H14.0367H14.0578V20.6124L14.0394 20.5965L14.0104 20.578L13.9154 20.5225L13.8837 20.5013L13.8626 20.4802V20.4617V20.4432V20.4167H13.8969H13.918H13.9629H14.0051H14.0631H14.137H14.2452H14.4404H14.4905H14.538L14.5881 20.98L14.5459 21.0144L14.4958 21.0488L14.4509 21.0726L14.3665 21.1122L14.2979 21.1413L14.2293 21.1678L14.137 21.1995L14.0473 21.226L13.9339 21.2524H13.8494H13.7545H13.6568L13.554 21.1572L13.4854 21.1096L13.4458 21.062L13.4036 20.98L13.3878 20.9271V20.8557V20.7896L13.3746 20.7579Z" fill="#202020"/>
</svg>
