<svg width="151" height="21" viewBox="0 0 151 21" fill="none" xmlns="http://www.w3.org/2000/svg">
<g clip-path="url(#clip0_10015_9720)">
<path d="M53.3407 19.9465L51.4157 16.6131C52.3157 14.8882 52.3156 12.8548 52.3156 10.1798C52.3156 6.84648 52.3157 4.34648 50.3907 2.32148C49.7274 1.59772 48.9136 1.02795 48.0067 0.652206C47.0997 0.276459 46.1215 0.103843 45.1407 0.146484C44.1625 0.1249 43.1907 0.307131 42.2868 0.681583C41.383 1.05604 40.5669 1.61451 39.8906 2.32148C37.9656 4.25482 37.9657 6.70482 37.9657 10.1465C37.9657 13.5882 37.8656 15.9798 39.8906 17.9965C40.5617 18.7141 41.3767 19.282 42.2823 19.6631C43.188 20.0344 44.1625 20.2077 45.1407 20.1715C45.6879 20.1635 46.2328 20.0964 46.7657 19.9715L53.3407 19.9465ZM42.624 15.6548C41.924 14.8215 41.724 13.9215 41.724 10.1465C41.724 6.37148 41.9657 5.44648 42.624 4.63815C42.9443 4.31846 43.3235 4.06378 43.7407 3.88815C44.1543 3.71193 44.5994 3.62122 45.049 3.62148C45.5012 3.62214 45.9488 3.71279 46.3657 3.88815C46.7802 4.06398 47.1566 4.3187 47.474 4.63815C48.174 5.47148 48.374 6.37148 48.374 10.1465C48.374 13.9215 48.174 14.8382 47.474 15.6548C47.1641 15.9835 46.7896 16.2445 46.374 16.4215C45.9524 16.5881 45.5022 16.6702 45.049 16.6631C44.5975 16.6722 44.1491 16.5871 43.7323 16.4132C43.3153 16.2382 42.9382 15.9802 42.624 15.6548Z" fill="#202020"/>
<path d="M97.6562 0.346436H101.381V19.9464H97.6562V0.346436Z" fill="#202020"/>
<path d="M7.37578 20.1465C4.46745 20.1465 2.23411 19.5381 0.300781 17.5965L2.72578 15.1465C3.35231 15.7177 4.08584 16.1591 4.88398 16.4452C5.68211 16.7312 6.52903 16.8563 7.37578 16.8131C9.60078 16.8131 10.8091 15.9798 10.8091 14.3631C10.8206 14.0622 10.7725 13.762 10.6674 13.4798C10.5657 13.2001 10.4068 12.9446 10.2008 12.7298C9.71865 12.3155 9.11768 12.0647 8.48411 12.0131L6.13411 11.6881C4.73978 11.5695 3.42676 10.982 2.40911 10.0215C1.94112 9.50193 1.57881 8.8962 1.34245 8.23813C1.09367 7.57008 0.983108 6.85849 1.01745 6.14646C1.00078 2.69646 3.52578 0.24646 7.80078 0.24646C10.4258 0.24646 12.4508 0.84646 14.0758 2.48813L11.6258 4.84646C11.0977 4.3578 10.474 3.98403 9.79414 3.74878C9.11423 3.51354 8.39291 3.42195 7.67578 3.47979C5.65078 3.47979 4.65078 4.61313 4.65078 5.97979C4.66682 6.51038 4.88086 7.01575 5.25078 7.39646C5.77456 7.83099 6.40437 8.11857 7.07578 8.22979L9.40078 8.52979C10.7899 8.56737 12.1164 9.11633 13.1258 10.0715C13.6428 10.6323 14.0449 11.2892 14.3091 12.0048C14.5676 12.7285 14.6836 13.4954 14.6508 14.2631C14.6508 18.0215 11.4258 20.1715 7.36745 20.1715" fill="#202020"/>
<path d="M20.0938 19.9464V0.346436H32.9187V3.67977H23.9188V8.30477H31.5854V11.8131H23.9271V16.6214H32.9271V19.9548H20.0938" fill="#202020"/>
<path d="M65.1438 20.1464C61.1938 20.1464 57.9688 17.3964 57.9688 13.2131V0.346436H61.8271V13.0964C61.8271 15.3464 63.1521 16.6631 65.1604 16.6631C67.1688 16.6631 68.4938 15.3214 68.4938 13.0964V0.346436H72.2188V13.1964C72.2188 17.3631 69.1187 20.1298 65.1687 20.1298" fill="#202020"/>
<path d="M90.1849 17.9965C89.5209 18.7187 88.7068 19.2869 87.7999 19.6612C86.8929 20.0355 85.9151 20.2068 84.9349 20.1631C83.9581 20.1898 82.9867 20.0107 82.0836 19.6374C81.1806 19.2641 80.3661 18.705 79.6932 17.9965C77.8016 16.0548 77.8016 13.6048 77.8016 10.1465C77.8016 6.68814 77.7016 4.31314 79.7349 2.29648C80.3925 1.58069 81.1987 1.01737 82.097 0.64597C82.9952 0.274575 83.9638 0.104096 84.9349 0.146477C85.9112 0.132787 86.88 0.317804 87.7826 0.690277C88.6851 1.06275 89.5025 1.6149 90.1849 2.31314C92.1099 4.25481 92.1099 6.70481 92.1099 10.1631C92.1099 13.6215 92.1099 15.9798 90.1849 17.9965ZM87.3599 4.66314C87.043 4.34341 86.666 4.08962 86.2505 3.91642C85.8349 3.74321 85.3892 3.65404 84.9391 3.65404C84.4889 3.65404 84.0432 3.74321 83.6277 3.91642C83.2122 4.08962 82.8351 4.34341 82.5183 4.66314C81.8099 5.49648 81.6183 6.39648 81.6183 10.1715C81.6183 13.9465 81.8099 14.8631 82.5183 15.6715C82.834 15.9932 83.2107 16.2488 83.6264 16.4233C84.042 16.5978 84.4883 16.6876 84.9391 16.6876C85.3899 16.6876 85.8362 16.5978 86.2518 16.4233C86.6675 16.2488 87.0442 15.9932 87.3599 15.6715C88.0599 14.8381 88.2599 13.9465 88.2599 10.1715C88.2599 6.39648 88.0849 5.44648 87.3599 4.63814V4.66314Z" fill="#202020"/>
<path d="M119.283 19.9464L118.174 16.4798H111.299L110.099 19.9464H106.133L113.233 0.346436H116.133L123.208 19.9464H119.283ZM114.724 6.05477L112.299 13.1964H117.149L114.724 6.05477Z" fill="#202020"/>
<path d="M145.453 0.346436H150.303V5.24644H145.453V0.346436Z" fill="#202020"/>
<path d="M133.323 15.7298V0.346436H130.898V18.2048L133.323 15.7298Z" fill="#202020"/>
<path d="M135.027 17.4965L132.602 19.9465H150.302V17.4965H135.027Z" fill="#202020"/>
<path d="M138.175 10.8548V0.346436H135.75V13.3048L138.175 10.8548Z" fill="#202020"/>
<path d="M139.879 12.5964L137.445 15.0464H150.304V12.5964H139.879Z" fill="#202020"/>
<path d="M143.019 5.97977V0.346436H140.594V8.40477L143.019 5.97977Z" fill="#202020"/>
<path d="M144.725 7.69653L142.309 10.1465H150.3V7.69653H144.725Z" fill="#202020"/>
</g>
<defs>
<clipPath id="clip0_10015_9720">
<rect width="150" height="20" fill="white" transform="translate(0.300781 0.146484)"/>
</clipPath>
</defs>
</svg>
