<svg width="65" height="33" viewBox="0 0 65 33" fill="none" xmlns="http://www.w3.org/2000/svg">
<g clip-path="url(#clip0_10015_9743)">
<path d="M14.0839 21.2491C14.0839 23.0887 14.4746 24.5009 14.9856 25.3553C15.6555 26.4745 16.6544 26.9495 17.6729 26.9495C18.9864 26.9495 20.1881 26.6127 22.5039 23.3038C24.3597 20.6518 26.5453 16.9292 28.0162 14.5954L30.5072 10.6415C32.2376 7.89568 34.2404 4.84327 36.5368 2.77423C38.4121 1.08538 40.4339 0.147217 42.4691 0.147217C45.8862 0.147217 49.141 2.19285 51.632 6.02944C54.3582 10.2311 55.6814 15.5237 55.6814 20.9851C55.6814 24.2321 55.062 26.6177 54.0077 28.5025C52.9894 30.3252 51.0044 32.1464 47.6652 32.1464V26.9487C50.5244 26.9487 51.2378 24.2345 51.2378 21.1284C51.2378 16.7022 50.2388 11.7902 48.0381 8.2803C46.4765 5.79071 44.4526 4.26956 42.2259 4.26956C39.8176 4.26956 37.8796 6.14628 35.7015 9.4915C34.5436 11.2691 33.3549 13.4352 32.0201 15.8796L30.5508 18.5686C27.5996 23.9758 26.8518 25.2068 25.376 27.2385C22.7895 30.7966 20.5806 32.1456 17.6729 32.1456C14.2234 32.1456 12.0422 30.6025 10.6913 28.2771C9.58856 26.3824 9.04688 23.8961 9.04688 21.0632L14.0839 21.2491Z" fill="#202020"/>
<path d="M13.0195 6.39558C15.3289 2.71821 18.6616 0.146484 22.484 0.146484C24.6976 0.146484 26.8987 0.823317 29.1963 2.76179C31.71 4.88068 34.3891 8.37179 37.7315 14.1231L38.9299 16.1864C41.8231 21.1656 43.4691 23.7273 44.4325 24.9352C45.6714 26.4864 46.5391 26.949 47.6662 26.949C50.5254 26.949 51.2388 24.2348 51.2388 21.1287L55.6824 20.9846C55.6824 24.2315 55.063 26.6172 54.0087 28.502C52.9904 30.3246 51.0053 32.1459 47.6662 32.1459C45.5903 32.1459 43.7514 31.6801 41.7177 29.6981C40.1549 28.1769 38.3265 25.4746 36.9205 23.0454L32.738 15.828C30.6397 12.206 28.714 9.5053 27.6006 8.2822C26.402 6.96687 24.8613 5.37872 22.4027 5.37872C20.413 5.37872 18.7231 6.82117 17.309 9.02764L13.0195 6.39558Z" fill="#202020"/>
<path d="M22.4018 5.37872C20.412 5.37872 18.7221 6.82117 17.308 9.02764C15.3083 12.1454 14.0849 16.7894 14.0849 21.2492C14.0849 23.0888 14.4756 24.5009 14.9866 25.3554L10.6913 28.2772C9.58856 26.3825 9.04688 23.8962 9.04688 21.0633C9.04688 15.9116 10.4156 10.5421 13.0185 6.39558C15.3279 2.71821 18.6606 0.146484 22.483 0.146484L22.4018 5.37872Z" fill="#202020"/>
</g>
<defs>
<clipPath id="clip0_10015_9743">
<rect width="64" height="32" fill="white" transform="translate(0.363281 0.146484)"/>
</clipPath>
</defs>
</svg>
