<svg width="135" height="29" viewBox="0 0 135 29" fill="none" xmlns="http://www.w3.org/2000/svg">
<g clip-path="url(#clip0_10015_9737)">
<path d="M134.362 12.8131V10.5066H131.434V6.92073L131.336 6.95039L128.586 7.77347L128.531 7.78965V10.5066H124.191V8.99318C124.191 8.28841 124.352 7.74905 124.67 7.38936C124.985 7.03396 125.436 6.85333 126.011 6.85333C126.424 6.85333 126.853 6.94864 127.283 7.13657L127.391 7.18367V4.75455L127.34 4.73631C126.939 4.59501 126.392 4.5238 125.714 4.5238C124.86 4.5238 124.084 4.70555 123.408 5.06586C122.731 5.42666 122.198 5.94176 121.825 6.59673C121.453 7.25092 121.264 8.00644 121.264 8.84252V10.5066H119.226V12.8131H121.264V22.5301H124.191V12.8131H128.531V18.9882C128.531 21.5313 129.758 22.8202 132.176 22.8202C132.573 22.8202 132.991 22.7745 133.418 22.6852C133.853 22.5937 134.149 22.5022 134.323 22.4045L134.362 22.3823V20.0544L134.243 20.1314C134.084 20.2351 133.886 20.3197 133.654 20.3825C133.421 20.4465 133.227 20.4787 133.076 20.4787C132.51 20.4787 132.091 20.3293 131.83 20.0347C131.568 19.7373 131.434 19.2172 131.434 18.4897V12.8131H134.362ZM112.69 20.479C111.628 20.479 110.79 20.1343 110.2 19.4556C109.606 18.7733 109.306 17.8007 109.306 16.565C109.306 15.2901 109.606 14.2922 110.201 13.5979C110.791 12.9082 111.621 12.5582 112.666 12.5582C113.681 12.5582 114.489 12.8925 115.067 13.5524C115.649 14.2156 115.944 15.2055 115.944 16.4953C115.944 17.801 115.667 18.8039 115.119 19.4748C114.576 20.1407 113.759 20.479 112.69 20.479ZM112.82 10.2169C110.794 10.2169 109.184 10.7978 108.037 11.9437C106.89 13.0896 106.308 14.6754 106.308 16.6574C106.308 18.5399 106.876 20.0541 107.995 21.1573C109.115 22.2609 110.639 22.8199 112.524 22.8199C114.489 22.8199 116.066 22.2309 117.213 21.0692C118.36 19.9087 118.942 18.338 118.942 16.4022C118.942 14.4903 118.396 12.9648 117.32 11.869C116.244 10.7726 114.729 10.2169 112.82 10.2169ZM101.589 10.2169C100.211 10.2169 99.0706 10.5618 98.1995 11.242C97.3231 11.9261 96.8786 12.8236 96.8786 13.9095C96.8786 14.4739 96.9746 14.9754 97.1634 15.4005C97.3534 15.8273 97.6475 16.2028 98.038 16.5181C98.4258 16.8309 99.0239 17.1585 99.8169 17.4917C100.483 17.76 100.981 17.9871 101.296 18.166C101.605 18.3413 101.824 18.5176 101.948 18.6892C102.068 18.8572 102.129 19.087 102.129 19.3708C102.129 20.1785 101.511 20.5715 100.238 20.5715C99.7665 20.5715 99.2282 20.4753 98.6384 20.2851C98.0484 20.0953 97.4971 19.8223 97 19.4723L96.8786 19.3872V22.1436L96.9232 22.1639C97.3374 22.3509 97.8594 22.5085 98.4747 22.6327C99.0889 22.7569 99.6469 22.8202 100.132 22.8202C101.628 22.8202 102.832 22.4735 103.711 21.7893C104.596 21.1004 105.044 20.1819 105.044 19.0583C105.044 18.2479 104.803 17.5528 104.327 16.9923C103.855 16.4363 103.035 15.9259 101.891 15.4748C100.98 15.117 100.396 14.8199 100.155 14.592C99.9231 14.3718 99.8053 14.0603 99.8053 13.6659C99.8053 13.3162 99.9507 13.0361 100.249 12.8092C100.55 12.5811 100.969 12.4652 101.495 12.4652C101.983 12.4652 102.481 12.5405 102.978 12.6882C103.473 12.8358 103.909 13.0336 104.272 13.2756L104.392 13.3555V10.7407L104.346 10.7213C104.011 10.5807 103.568 10.4603 103.031 10.3626C102.496 10.2659 102.011 10.2169 101.589 10.2169ZM89.249 20.479C88.187 20.479 87.3493 20.1343 86.7592 19.4556C86.1652 18.7733 85.8649 17.801 85.8649 16.565C85.8649 15.2901 86.1656 14.2922 86.7598 13.5979C87.3499 12.9082 88.1792 12.5582 89.2255 12.5582C90.2399 12.5582 91.0477 12.8925 91.6264 13.5524C92.208 14.2156 92.5031 15.2055 92.5031 16.4953C92.5031 17.801 92.2254 18.8039 91.6781 19.4748C91.1347 20.1407 90.3179 20.479 89.249 20.479ZM89.3796 10.2169C87.3525 10.2169 85.7428 10.7978 84.5957 11.9437C83.4488 13.0896 82.8669 14.6754 82.8669 16.6574C82.8669 18.5407 83.4349 20.0541 84.5546 21.1573C85.6742 22.2609 87.1978 22.8199 89.0831 22.8199C91.0472 22.8199 92.6253 22.2309 93.7725 21.0692C94.9193 19.9087 95.5007 18.338 95.5007 16.4022C95.5007 14.4903 94.9552 12.9648 93.879 11.869C92.8022 10.7726 91.2883 10.2169 89.3796 10.2169ZM78.4243 12.5887V10.5066H75.5333V22.5298H78.4243V16.3795C78.4243 15.3336 78.6667 14.4745 79.1449 13.8256C79.6171 13.1844 80.2464 12.8594 81.0146 12.8594C81.2749 12.8594 81.5672 12.9015 81.8838 12.9846C82.1972 13.0672 82.4241 13.1568 82.558 13.2512L82.6794 13.3373V10.486L82.6326 10.4663C82.3633 10.3544 81.9825 10.2979 81.5006 10.2979C80.7742 10.2979 80.124 10.5263 79.5672 10.9759C79.0784 11.3711 78.725 11.913 78.455 12.5887H78.4243ZM70.3562 10.2169C69.0301 10.2169 67.847 10.4952 66.8407 11.0436C65.8324 11.5933 65.0526 12.3781 64.5221 13.3761C63.9939 14.3718 63.7258 15.5347 63.7258 16.8315C63.7258 17.9675 63.9858 19.01 64.4997 19.9287C65.0139 20.849 65.7418 21.569 66.663 22.0684C67.5829 22.5672 68.6462 22.8202 69.8234 22.8202C71.1972 22.8202 72.3702 22.5514 73.3108 22.0215L73.3487 22.0001V19.4091L73.2273 19.4958C72.8013 19.7993 72.3252 20.0417 71.8129 20.2163C71.302 20.3907 70.8361 20.4789 70.4277 20.4789C69.2933 20.4789 68.3828 20.1316 67.7217 19.4471C67.0592 18.7615 66.7233 17.799 66.7233 16.5877C66.7233 15.3688 67.0736 14.3816 67.764 13.653C68.4522 12.9267 69.3645 12.5583 70.4754 12.5583C71.4257 12.5583 72.3516 12.8731 73.2276 13.4948L73.3487 13.5809V10.8507L73.3096 10.8292C72.9799 10.6487 72.5304 10.4996 71.9721 10.3866C71.4164 10.2738 70.8729 10.2169 70.3562 10.2169ZM61.7347 10.5066H58.8437V22.5298H61.7347V10.5066ZM60.3187 5.38466C59.843 5.38466 59.428 5.54309 59.0871 5.8571C58.7447 6.17206 58.5709 6.56854 58.5709 7.03638C58.5709 7.49692 58.7426 7.8861 59.0816 8.19265C59.4184 8.49826 59.8347 8.6532 60.3187 8.6532C60.8026 8.6532 61.2205 8.49826 61.5614 8.19313C61.9046 7.8861 62.0786 7.49692 62.0786 7.03638C62.0786 6.58487 61.9093 6.19236 61.5755 5.86979C61.2423 5.54785 60.8193 5.38466 60.3187 5.38466ZM53.1057 9.61958V22.5298H56.056V5.75284H51.9728L46.7825 18.2142L41.7457 5.75284H37.4961V22.5298H40.2686V9.61831H40.3639L45.6826 22.5298H47.7749L53.0106 9.61958H53.1057Z" fill="#202020"/>
<path d="M13.9005 13.4512H0.300781V0.146484H13.9005V13.4512Z" fill="#202020"/>
<path d="M28.9159 13.4512H15.3164V0.146484H28.9159V13.4512Z" fill="#202020"/>
<path d="M13.9001 28.1465H0.300781V14.8418H13.9001V28.1465Z" fill="#202020"/>
<path d="M28.9159 28.1465H15.3164V14.8418H28.9159V28.1465Z" fill="#202020"/>
</g>
<defs>
<clipPath id="clip0_10015_9737">
<rect width="134.061" height="28" fill="white" transform="translate(0.300781 0.146484)"/>
</clipPath>
</defs>
</svg>
