<svg width="133" height="18" viewBox="0 0 133 18" fill="none" xmlns="http://www.w3.org/2000/svg">
<path d="M12.3491 15.287C11.8258 16.5652 10.7269 18 7.50886 18C2.564 18 0 14.6348 0 9C0 3.54782 3.19192 0 9.05249 0C14.5206 0 17.1631 2.71304 17.1631 6.80869V6.9913H11.9043V6.91304C11.9043 5.32174 11.224 4.77391 8.71237 4.77391C6.12221 4.77391 5.28498 5.47826 5.28498 9C5.28498 12.887 6.22686 13.487 9.15715 13.487C11.695 13.487 12.3491 13.0696 12.4276 12H8.29376V8.32174H17.1893V17.7391H12.5845V15.287H12.3491Z" fill="#43AA13"/>
<path d="M33.0256 13.3304V17.7391H18.8713V0.260869H33.0256V4.66956H23.79V6.78261H32.6332V11.1652H23.79V13.3304H33.0256Z" fill="#43AA13"/>
<path d="M39.7138 10.4609V17.7391H34.7951V0.260869H40.0539L44.9465 8.11304L46.0976 10.2522H46.4378L46.1761 8.11304V0.260869H51.0687V17.7391H45.836L41.2051 10.4609L39.7923 7.98261H39.4522L39.7138 10.4609Z" fill="#43AA13"/>
<path fill-rule="evenodd" clip-rule="evenodd" d="M70.2339 9C70.2339 14.4522 66.9896 18 61.443 18C55.8702 18 52.626 14.4522 52.626 9C52.626 3.54782 55.8702 0 61.443 0C66.9896 0 70.2339 3.54782 70.2339 9ZM57.911 9C57.911 12.3652 58.722 13.2261 61.443 13.2261C64.1378 13.2261 64.9489 12.3652 64.9489 9C64.9489 5.63478 64.1378 4.77391 61.443 4.77391C58.722 4.77391 57.911 5.63478 57.911 9Z" fill="#43AA13"/>
<path fill-rule="evenodd" clip-rule="evenodd" d="M76.0607 14.3739L74.9357 17.7391H69.86L75.9561 0.260869H83.0986L89.1685 17.7391H83.7789L82.7062 14.3739H76.0607ZM79.2526 4.51304L77.8137 9.07826L77.4735 10.0957H81.3195L81.0056 9.07826L79.6189 4.51304H79.2526Z" fill="#43AA13"/>
<path d="M103.824 13.3304V17.7391H89.6695V0.260869H103.824V4.66956H94.5882V6.78261H103.431V11.1652H94.5882V13.3304H103.824Z" fill="#43AA13"/>
<path d="M120.224 12.313C120.224 15.3652 118.13 18 112.872 18C107.848 18 105.337 15.6522 105.337 12V11.6609H110.177V11.8696C110.177 13.3043 110.7 13.5913 113.055 13.5913C114.912 13.5913 115.305 13.3043 115.305 12.5478C115.305 11.7391 115.043 11.4783 113.84 11.2957L110.02 10.6957C106.462 10.1478 104.996 8.26956 104.996 5.55652C104.996 2.45217 107.377 0 112.532 0C117.424 0 119.753 2.45217 119.753 5.71304V6.15652H114.912V5.84348C114.912 4.82609 114.415 4.40869 112.218 4.40869C110.36 4.40869 109.889 4.72174 109.889 5.37391C109.889 5.92174 110.229 6.15652 111.25 6.33913L115.069 7.01739C118.785 7.66956 120.224 9.6 120.224 12.313Z" fill="#43AA13"/>
<path d="M124.634 7.95653L132.632 9.65176L130.932 17.6259L122.935 15.9306L124.634 7.95653Z" fill="#43AA13"/>
</svg>
