<svg width="132" height="28" viewBox="0 0 132 28" fill="none" xmlns="http://www.w3.org/2000/svg">
<path fill-rule="evenodd" clip-rule="evenodd" d="M8.5341 13.4259C8.4028 14 8.05268 15.0158 7.83386 15.5016C7.39622 16.429 6.17081 17.5773 4.85787 17.5773C3.28234 17.5773 2.66964 16.7823 2.66964 15.9432C2.66964 15.3249 2.97599 14.8833 3.5887 14.8833C4.2014 14.8833 4.33269 15.4132 4.33269 15.5899C4.33269 15.8107 4.24517 16.0757 4.15764 16.164C4.07011 16.2524 4.07011 16.3407 4.07011 16.4732C4.07011 16.8265 4.46399 17.0032 4.81411 17.0032C5.6894 17.0032 6.17081 16.2965 6.47716 15.1041C6.69598 14.3091 7.00234 12.9401 7.61504 10.5552L7.52751 10.511C7.30869 10.8202 6.3021 12.2334 3.98258 12.2334C1.61929 12.2334 0 10.5552 0 7.55205C0 5.34385 1.00659 3.44479 2.27576 2.11987C3.23858 1.14826 4.72658 0.0883281 7.08987 0.0883281C8.88421 0.0883281 9.7595 0.662461 10.1096 0.971609C10.416 1.14827 10.5473 1.19243 10.6348 1.19243C10.8536 1.19243 10.9411 1.01577 11.0287 0.618297C11.0287 0.529969 11.1162 0.529969 11.2037 0.529969L11.4663 0.618297C11.5539 0.618297 11.5976 0.662461 11.5539 0.750789L10.591 4.23975C10.5473 4.32808 10.5035 4.37224 10.416 4.32808L10.1534 4.28391C10.0659 4.28391 10.0221 4.19558 10.0221 4.10726C10.3284 2.60568 9.45315 0.794953 7.26492 0.794953C6.17081 0.794953 4.9454 1.19243 3.71999 2.78233C2.7134 4.06309 2.14447 5.91798 2.14447 7.99369C2.14447 10.8202 3.89505 11.2618 4.63905 11.2618C6.69598 11.2618 7.70257 9.49527 7.74633 8.4795C7.7901 7.81704 7.61504 7.68454 7.13363 7.68454H6.52092C6.38963 7.68454 6.34587 7.64038 6.38963 7.50789L6.47716 7.11041C6.47716 7.02208 6.52092 6.97792 6.65222 6.97792C6.91481 6.97792 7.52751 7.02208 9.01551 7.02208C10.1972 7.02208 10.591 6.97792 10.8099 6.97792C10.9411 6.97792 10.9849 7.02208 10.9849 7.11041V7.55205C10.9849 7.64038 10.9411 7.68454 10.8099 7.68454H10.4597C10.1534 7.68454 9.8908 7.81703 9.67198 8.74448L8.5341 13.4259ZM21.7072 8.83281C21.6197 8.74448 21.5322 8.78864 21.4884 8.87697C21.2258 9.18612 20.3068 10.3785 19.9129 10.6877C19.4752 11.0852 18.9938 11.3502 18.4249 11.3502H14.5736L16.2367 6.09464H17.112C18.3374 6.09464 18.9938 6.27129 18.9938 7.50789C18.9938 7.59621 18.9938 7.64038 19.0814 7.68454H19.3877C19.4752 7.68454 19.4752 7.68454 19.519 7.59622C19.6065 6.93375 20.1317 4.81388 20.3943 4.15142C20.4381 4.10726 20.3943 4.06309 20.3068 4.06309L20.0004 3.97476C19.9129 3.97476 19.9129 4.01893 19.8691 4.06309C19.2564 5.43218 18.6 5.5205 17.856 5.5205H16.368L17.8122 1.05994H20.4818C20.5694 1.05994 20.7007 1.1041 20.7882 1.19243L22.5388 3.22397C22.6263 3.3123 22.6701 3.35647 22.7576 3.3123L22.9764 3.22397C23.0639 3.13565 23.0639 3.13565 23.0639 3.04732L22.5388 0.750789C22.495 0.397476 22.495 0.309148 22.1887 0.309148C22.0136 0.309148 21.5759 0.309148 20.9195 0.353312C20.2192 0.353312 19.3002 0.353312 18.0748 0.353312H16.8494C16.4555 0.353312 15.8865 0.353312 15.3614 0.309148C14.88 0.309148 14.4861 0.309148 14.3548 0.309148C14.2235 0.309148 14.1797 0.353312 14.136 0.44164L14.0484 0.839117C14.0047 0.927445 14.0484 1.01577 14.136 1.01577H14.7049C15.2301 1.01577 15.8428 1.23659 15.5364 2.2082L12.9106 10.4227C12.7355 10.9968 12.3854 11.3502 11.7289 11.3502H11.16C11.0724 11.3502 11.0724 11.3943 11.0287 11.4385L10.9411 11.8801C10.9411 11.9685 10.9411 12.0126 11.0287 12.0126C11.1162 12.0126 11.4226 12.0126 11.7727 11.9685C12.1666 11.9685 12.648 11.9685 13.1731 11.9685H15.4051C16.5868 11.9685 17.8122 11.9685 18.775 11.9685C19.7378 11.9685 20.4381 12.0126 20.5694 12.0126C20.7882 12.0126 20.8757 11.9685 20.9632 11.7035L21.8385 9.18612C21.8823 9.05363 21.8385 9.00946 21.7948 9.00946L21.7072 8.83281ZM35.0117 5.16719C35.0117 1.98738 33.086 0.132492 30.3726 0.132492C26.6964 0.132492 24.1143 3.48896 24.1143 7.11041C24.1143 8.65615 24.5519 10.0694 25.6023 11.0852C26.6526 12.1009 28.0093 12.2334 28.6658 12.2334C32.5609 12.2334 35.0117 8.61199 35.0117 5.16719ZM28.2719 2.2082C28.8846 1.50158 29.7162 0.927445 30.7227 0.927445C32.2545 0.927445 33.1298 2.07571 33.1298 3.79811C33.086 7.55205 30.854 11.3943 28.3595 11.3943C26.959 11.3943 25.8211 10.3786 25.8211 8.25868C25.8649 6.35962 26.8715 3.79811 28.2719 2.2082ZM39.607 6.35962C40.0884 6.35962 40.8324 6.27129 41.2262 7.19874C41.4451 7.59622 42.9331 10.9968 43.1957 11.3943C43.4145 11.7918 43.502 11.9685 43.6771 11.9685C43.9397 11.9685 44.246 11.9243 45.2526 11.9243C46.1716 11.9243 46.4342 11.9685 46.6093 11.9685C46.6968 11.9685 46.7406 11.8801 46.7844 11.7918L46.8281 11.4385C46.8719 11.3502 46.8281 11.2618 46.7406 11.2618H46.3029C45.6902 11.2618 45.2964 10.9968 44.8149 10.2461C44.5086 9.76025 43.3707 7.33123 43.2394 7.15457C43.0644 6.80126 42.8018 6.27129 42.2328 6.1388V6.05047C44.4648 5.82965 46.2592 4.4164 46.2592 2.73817C46.2592 0.353312 43.6771 0.22082 42.2328 0.22082C41.7514 0.22082 39.9571 0.264984 38.2065 0.264984C38.0314 0.264984 37.9877 0.309148 37.9877 0.397476L37.9001 0.750789C37.8564 0.839117 37.9001 0.883281 38.0314 0.883281H38.6004C39.1693 0.883281 39.3006 1.19243 39.1255 1.76656L36.3684 10.511C36.2371 10.9527 35.9307 11.306 35.4931 11.306H35.0554C34.9241 11.306 34.8804 11.3502 34.8804 11.4385L34.7929 11.836C34.7491 11.9243 34.7929 12.0126 34.8804 12.0126C35.0992 12.0126 35.7557 11.9685 36.9373 11.9685C38.4253 11.9685 39.1693 12.0126 39.3881 12.0126C39.4757 12.0126 39.5632 11.9685 39.607 11.8801L39.6507 11.4826C39.6945 11.3943 39.6507 11.3502 39.5632 11.3502H38.863C38.3815 11.3502 38.2065 11.041 38.4691 10.1136L39.607 6.35962ZM41.27 0.971609C41.4888 0.927445 41.6639 0.927445 41.9702 0.927445C43.6333 0.927445 44.1585 2.03155 44.1585 2.78233C44.1585 4.01893 43.3707 4.99054 42.4954 5.38801C41.3138 5.87382 40.4385 5.78549 39.7383 5.78549L41.27 0.971609ZM54.7057 10.4227C54.6182 10.6877 54.5307 10.9527 54.3556 11.041C54.1368 11.2177 53.5241 11.4385 52.6926 11.4385C51.3796 11.4385 49.8041 10.3344 49.8041 7.68454C49.8041 4.01893 52.0799 0.794953 54.7057 0.794953C56.894 0.794953 57.638 2.60568 57.4192 4.10726C57.3754 4.23975 57.4191 4.32808 57.5067 4.32808H57.8568C57.9443 4.37224 57.9881 4.32808 58.0319 4.23975L59.0384 0.794953C59.0384 0.706625 58.9947 0.662461 58.9509 0.662461L58.6883 0.574133C58.6008 0.529968 58.5133 0.574133 58.5133 0.662461C58.3382 1.01577 58.2507 1.19243 58.0319 1.19243C57.9443 1.19243 57.813 1.14827 57.638 0.971609C57.2879 0.706625 56.325 0.0883281 54.8808 0.0883281C51.0295 0.0883281 47.7034 3.3123 47.7034 7.50789C47.7034 10.0252 49.6291 12.1893 52.8239 12.1893C54.3119 12.1893 55.7561 11.6151 56.2375 11.3943C56.4563 11.306 56.5439 11.2177 56.5876 10.9968L57.1566 8.347C57.2441 7.90536 57.5504 7.77287 57.9881 7.77287H58.2507C58.3382 7.77287 58.4257 7.72871 58.4257 7.64038L58.4695 7.28707C58.4695 7.15457 58.4257 7.06625 58.3382 7.06625C58.1194 7.06625 57.6817 7.11041 56.325 7.11041C54.9246 7.11041 54.3556 7.06625 54.0493 7.06625C53.9617 7.06625 53.8742 7.11041 53.8742 7.19874L53.7867 7.55205C53.7867 7.64038 53.7867 7.72871 53.9617 7.72871H54.5307C55.0121 7.72871 55.2747 7.8612 55.1434 8.56782L54.7057 10.4227ZM69.0168 8.83281C68.9292 8.74448 68.8417 8.78864 68.7979 8.87697C68.5354 9.18612 67.6163 10.3785 67.2224 10.6877C66.7848 11.0852 66.3034 11.3502 65.7344 11.3502H61.8831L63.5462 6.09464H64.4215C65.6469 6.09464 66.3034 6.27129 66.3034 7.50789C66.3034 7.59621 66.3034 7.64038 66.3909 7.68454H66.6972C66.7848 7.68454 66.7848 7.68454 66.8285 7.59622C66.9161 6.93375 67.4412 4.81388 67.7038 4.15142C67.7476 4.10726 67.7038 4.06309 67.6163 4.06309L67.31 3.97476C67.2224 3.97476 67.2224 4.01893 67.1786 4.06309C66.5659 5.43218 65.9095 5.5205 65.1655 5.5205H63.6775L65.1217 1.05994H67.7914C67.8789 1.05994 68.0102 1.1041 68.0977 1.19243L69.8483 3.22397C69.9358 3.3123 69.9796 3.35647 70.0671 3.3123L70.2859 3.22397C70.3735 3.13565 70.3735 3.13565 70.3735 3.04732L69.8483 0.750789C69.7608 0.485804 69.7608 0.397476 69.4544 0.397476C69.2794 0.397476 68.8417 0.397476 68.1852 0.44164C67.485 0.44164 66.5659 0.44164 65.3405 0.44164H64.1151C63.7212 0.44164 63.1523 0.44164 62.6271 0.397476C62.1457 0.397476 61.7519 0.397476 61.6206 0.397476C61.4893 0.397476 61.4455 0.44164 61.4017 0.529969L61.3142 0.927445C61.2704 1.01577 61.3142 1.1041 61.4017 1.1041H61.9707C62.4958 1.1041 63.1085 1.32492 62.8022 2.29653L60.1763 10.511C60.0013 11.0852 59.6511 11.4385 58.9947 11.4385H58.4257C58.3382 11.4385 58.3382 11.4826 58.2944 11.5268L58.2069 11.9685C58.2069 12.0568 58.2069 12.1009 58.2944 12.1009C58.382 12.1009 58.6883 12.1009 59.0384 12.0568C59.4323 12.0568 59.9137 12.0568 60.4389 12.0568H62.6709C63.8525 12.0568 65.0779 12.0568 66.0408 12.0568C67.0036 12.0568 67.7038 12.1009 67.8351 12.1009C68.0539 12.1009 68.1415 12.0568 68.229 11.7918L69.1043 9.27445C69.1481 9.14196 69.1043 9.09779 69.0605 9.09779L69.0168 8.83281ZM75.8003 0.397476C74.0059 0.397476 73.1744 0.264984 72.868 0.176656C72.7368 0.0883281 72.6492 0.044164 72.6055 0.044164C72.5179 0.044164 72.4742 0.132492 72.4304 0.22082C72.3866 0.309148 71.3363 2.73817 71.1175 3.13565C71.0737 3.22397 71.0737 3.26814 71.1612 3.3123L71.4238 3.48896C71.5113 3.48896 71.5551 3.48896 71.6426 3.40063C72.0365 2.91483 72.9556 1.89905 73.5245 1.45741C73.9184 1.14827 74.6624 1.05994 76.2379 1.05994H76.6756L74.0497 9.5836C73.6558 10.8644 73.3495 11.3502 72.3866 11.3502H71.949C71.8177 11.3502 71.7739 11.3943 71.7302 11.4826L71.6864 11.8801C71.6864 11.9685 71.7302 12.0568 71.8615 12.0568C72.0365 12.0568 72.9556 12.0126 74.6186 12.0126C76.2379 12.0126 76.8944 12.0568 77.157 12.0568C77.2883 12.0568 77.332 12.0126 77.3758 11.8801L77.4633 11.5268C77.4633 11.4385 77.4633 11.3502 77.3758 11.3502H76.6318C75.7565 11.3502 75.5815 10.9527 75.9316 9.89275L78.645 1.05994H78.9951C79.7829 1.05994 81.0083 1.23659 81.4021 1.50158C81.621 1.94322 81.9711 3.00315 82.1024 3.57729C82.1899 3.79811 82.2337 3.84227 82.3212 3.84227L82.5838 3.79811C82.6713 3.79811 82.7151 3.75394 82.7151 3.62145C82.6713 2.91483 82.8464 0.397476 82.8901 0.132492C82.8901 0.044164 82.8026 0 82.7589 0C82.6713 0 82.6713 0.044164 82.5838 0.0883281C82.2774 0.264984 81.6647 0.397476 80.133 0.397476H75.8003ZM93.7875 5.16719C93.7875 1.98738 91.8619 0.132492 89.1485 0.132492C85.516 0.132492 82.9339 3.53312 82.9339 7.11041C82.9339 8.65615 83.3716 10.0694 84.4219 11.0852C85.4723 12.1009 86.8289 12.2334 87.4854 12.2334C91.3805 12.2334 93.7875 8.61199 93.7875 5.16719ZM87.0915 2.2082C87.7042 1.50158 88.5358 0.927445 89.5424 0.927445C91.0741 0.927445 91.9494 2.07571 91.9494 3.79811C91.9056 7.55205 89.6737 11.3943 87.1791 11.3943C85.7786 11.3943 84.6407 10.3786 84.6407 8.25868C84.6407 6.35962 85.6911 3.79811 87.0915 2.2082ZM98.5579 1.94322C98.6892 1.23659 98.908 1.01577 99.4769 1.01577H99.7395C99.8708 1.01577 99.9146 0.927445 99.9146 0.883281L100.002 0.485804C100.046 0.353312 100.002 0.309148 99.827 0.309148C99.6082 0.309148 98.9518 0.353312 97.9014 0.353312C96.7635 0.397476 96.0633 0.309148 95.8882 0.309148C95.7569 0.309148 95.7132 0.353312 95.6694 0.44164L95.6256 0.839117C95.6256 0.971609 95.6256 1.01577 95.8007 1.01577H96.1946C96.5885 1.01577 96.6322 1.32492 96.5885 1.89905L95.363 11.571C95.2755 12.0568 95.363 12.2776 95.5819 12.2776C95.8445 12.2776 96.0195 12.0568 96.2383 11.836C96.851 11.0852 101.49 4.59306 101.665 4.37224C101.796 4.19558 101.928 4.19558 101.884 4.4164L101.403 11.6593C101.359 12.0568 101.446 12.2776 101.709 12.2776C101.971 12.2776 102.19 12.0126 102.409 11.7035C103.153 10.776 105.385 7.46372 105.867 6.66877C106.26 5.96214 108.843 1.67823 109.018 1.45741C109.28 1.1041 109.587 0.971609 109.893 0.971609H110.199C110.287 0.971609 110.287 0.927445 110.331 0.839117L110.418 0.397476C110.418 0.309148 110.374 0.264984 110.243 0.264984C110.024 0.264984 109.543 0.309148 108.536 0.309148C107.661 0.309148 107.223 0.264984 107.004 0.264984C106.917 0.264984 106.829 0.309148 106.829 0.44164L106.742 0.794953C106.698 0.927445 106.786 0.971609 106.873 0.971609H107.136C107.661 0.971609 107.705 1.41325 107.53 1.85489C107.355 2.34069 106.611 3.9306 105.779 5.34385C105.429 5.91798 103.766 8.74448 103.416 9.09779C103.241 9.31861 103.153 9.27445 103.197 8.9653L104.072 1.76656C104.16 1.14827 104.291 0.971609 104.641 0.971609H104.904C105.035 0.971609 105.079 0.927445 105.123 0.839117L105.166 0.44164C105.166 0.353312 105.166 0.309148 104.991 0.309148C104.772 0.309148 104.335 0.353312 103.328 0.353312C102.278 0.353312 101.84 0.309148 101.665 0.309148C101.534 0.309148 101.49 0.353312 101.446 0.397476L101.359 0.883281C101.359 0.971609 101.403 1.01577 101.49 1.01577H101.709C102.015 1.01577 102.147 1.23659 102.147 1.58991C102.147 1.94322 101.928 2.64984 101.534 3.26814C101.446 3.35647 97.6826 8.92114 97.5513 9.00946C97.3762 9.23028 97.2449 9.14196 97.2887 8.92114L98.5579 1.94322ZM106.961 10.2461C106.961 11.6593 108.142 12.4101 109.368 12.4101C111.862 12.4101 113.394 10.4669 114.313 8.87697C115.188 7.37539 115.932 5.12303 116.326 2.91483C116.37 2.64984 116.458 2.64984 116.501 2.8265C117.333 6.22713 118.908 10.0694 120.834 12.6309C121.841 14 124.073 16.7823 127.574 16.7823C129.543 16.7823 130.462 15.8107 130.725 15.5016C131.031 15.1924 131.25 14.6625 131.25 14.4416C131.25 14.1767 131.119 13.8675 130.769 13.8675C130.418 13.8675 130.2 14.2208 130.025 14.9716C129.893 15.5457 129.281 15.9432 128.405 15.9432C125.429 15.9432 122.935 12.7634 122.059 11.2618C121.884 10.9527 121.578 10.5994 121.884 9.36278C122.979 4.4164 124.335 2.56151 125.517 1.7224C126.086 1.32492 126.392 1.23659 126.742 1.23659C126.961 1.23659 127.267 1.41325 127.355 1.63407C127.486 1.85489 127.749 2.11987 128.099 2.11987C128.537 2.11987 128.93 1.7224 128.93 1.23659C128.93 0.662461 128.449 0.044164 127.443 0.044164C126.742 0.044164 125.911 0.22082 125.035 0.927445C123.154 2.38486 122.016 5.74133 121.272 9.14196C121.184 9.45111 121.097 9.62776 121.009 9.40694C120.09 7.90536 118.471 3.48896 117.902 0.839117C117.814 0.574133 117.727 0.44164 117.42 0.44164C114.357 0.44164 112.606 0.309148 111.381 1.19243C110.593 1.76656 110.199 2.69401 110.199 3.57729C110.199 4.4164 110.724 5.07886 111.293 5.07886C111.819 5.07886 112.169 4.72555 112.169 4.32808C112.169 3.9306 111.95 3.62145 111.381 3.53312C111.031 3.4448 110.899 3.04732 110.899 2.8265C110.899 2.42902 111.556 1.94322 112.256 1.7224C113.219 1.41325 114.226 1.41325 115.276 1.41325C115.67 1.41325 115.845 1.54574 115.845 1.94322C115.845 3.66562 114.488 7.41956 113.263 9.14196C112.519 10.1577 111.118 11.4826 109.499 11.4826C108.536 11.4826 108.274 11.0852 108.361 10.776C108.449 10.3785 108.93 10.1577 108.93 9.67193C108.93 9.09779 108.536 8.83281 108.099 8.83281C107.53 8.83281 106.961 9.31861 106.961 10.2461ZM23.6766 18.1073C23.9392 17.224 24.2894 16.7382 24.8583 16.7382H25.1209C25.2522 16.7382 25.2959 16.6498 25.2959 16.6057L25.3835 16.2524C25.4272 16.1199 25.3835 16.0315 25.2084 16.0315C25.0333 16.0315 24.6395 16.0757 23.6766 16.0757C22.5825 16.0757 21.9261 16.0315 21.7072 16.0315C21.5322 16.0315 21.4884 16.1199 21.4884 16.2082L21.4447 16.6057C21.4447 16.694 21.4447 16.7382 21.6197 16.7382H22.1887C22.7576 16.7382 22.9326 17.1356 22.5825 18.3281L21.3571 22.7445C20.7882 24.6435 20.2192 25.571 19.4315 26.2334C18.8625 26.7192 17.9872 26.9842 17.1995 26.9842C16.6743 26.9842 14.88 26.7634 14.88 24.6877C14.88 23.9369 15.2738 22.6562 15.4051 22.3028L16.8056 17.6656C17.0682 16.8265 17.5058 16.7382 17.8122 16.7382H18.2936C18.3811 16.7382 18.4687 16.6498 18.4687 16.6057L18.5562 16.2524C18.5562 16.1199 18.5124 16.0315 18.3811 16.0315C18.2061 16.0315 17.6371 16.0757 16.2367 16.0757C14.6611 16.0757 14.0922 16.0315 13.8734 16.0315C13.6983 16.0315 13.6546 16.0757 13.6546 16.164L13.567 16.5615C13.5233 16.6498 13.6108 16.694 13.6546 16.694H14.2673C14.7487 16.694 14.9675 16.959 14.7487 17.7539L13.2607 22.5237C13.1731 22.9211 12.9106 23.9811 12.9106 24.6877C12.9106 26.8076 14.5736 27.8675 16.7618 27.8675C19.9129 27.8675 21.2696 25.836 22.1887 22.7886L23.6766 18.1073ZM32.5171 27.3375C32.6046 27.5584 32.7797 27.6909 32.9547 27.6909C33.0423 27.6467 33.1736 27.5142 33.3049 27.2492L36.4559 18.1514C36.806 17.1798 37.1561 16.7382 37.55 16.7382H37.9877C38.0752 16.7382 38.119 16.694 38.119 16.6057L38.2065 16.2965C38.2503 16.164 38.2065 16.0757 38.0314 16.0757C37.8126 16.0757 37.4625 16.1199 36.5434 16.1199C35.3618 16.1199 34.7929 16.0757 34.574 16.0757C34.4865 16.0757 34.4427 16.164 34.399 16.2082L34.3552 16.6057C34.3114 16.7382 34.3552 16.7823 34.5303 16.7823H35.0554C35.6244 16.7823 35.7557 17.3565 35.318 18.7256L33.5237 24.3344C33.3924 24.7319 33.3049 24.776 33.1736 24.5552L29.366 16.5615C29.2785 16.3407 29.1472 16.1199 28.8409 16.1199C26.8277 16.1199 26.1275 16.0757 25.9086 16.0757C25.7773 16.0757 25.7336 16.164 25.6898 16.2524L25.6023 16.5615C25.5585 16.694 25.6023 16.7823 25.7336 16.7823H26.3901C27.0903 16.7823 27.4842 17.2681 27.134 18.2839L25.0333 24.9527C24.5082 26.4984 24.1143 27.0726 23.3265 27.0726H22.9326C22.8451 27.0726 22.8014 27.1609 22.7576 27.205L22.7138 27.5584C22.7138 27.6909 22.7138 27.735 22.8451 27.735C23.0639 27.735 23.5891 27.6909 24.8145 27.6909C25.9962 27.6909 26.6964 27.735 26.8715 27.735C27.0465 27.735 27.0465 27.6909 27.0903 27.5584L27.1778 27.205C27.1778 27.1167 27.1341 27.0284 27.0028 27.0284H26.3463C25.6461 27.0284 25.5585 26.2334 26.1275 24.2461L27.8343 18.4606C27.878 18.2397 28.0093 18.2397 28.0969 18.4164L32.5171 27.3375ZM38.119 25.7918C37.9001 26.6751 37.7688 27.0284 36.7623 27.0284H36.1058C36.0183 27.0284 35.9745 27.0726 35.9745 27.1609L35.887 27.5584C35.887 27.6467 35.9307 27.735 36.0183 27.735C36.2371 27.735 37.1124 27.6909 38.5566 27.6909C40.3072 27.6909 41.095 27.735 41.3138 27.735C41.4888 27.735 41.4888 27.6909 41.5326 27.5584L41.5764 27.205C41.6201 27.1167 41.5764 27.0284 41.4888 27.0284H40.8761C40.1759 27.0284 39.9133 26.6751 40.1321 25.836L42.2766 17.8864C42.5392 16.9148 42.9331 16.7382 43.6333 16.7382H44.0709C44.2022 16.7382 44.246 16.6498 44.246 16.6057L44.3335 16.2524C44.3773 16.1199 44.2898 16.0315 44.1147 16.0315C43.8959 16.0315 43.1519 16.0757 41.6639 16.0757C40.3072 16.0757 39.3881 16.0315 39.1693 16.0315C39.038 16.0315 38.9505 16.0757 38.9505 16.1199L38.863 16.5615C38.863 16.6498 38.9067 16.694 39.038 16.694H39.8258C40.2634 16.694 40.526 16.959 40.3072 17.8423L38.119 25.7918ZM47.0907 24.511C46.8719 24.8202 46.6531 24.776 46.6968 24.3344L47.8785 17.4006C47.966 16.9148 48.2723 16.694 48.8413 16.694H49.3227C49.454 16.694 49.4978 16.6498 49.4978 16.5615L49.5415 16.164C49.5853 16.0315 49.5415 15.9874 49.3665 15.9874C49.1476 15.9874 48.4474 16.0315 47.222 16.0315C45.734 16.0315 45.0338 15.9874 44.7712 15.9874C44.6399 15.9874 44.6399 16.0315 44.5961 16.164L44.5086 16.5174C44.4648 16.6498 44.5524 16.694 44.6837 16.694H45.2526C45.8215 16.694 45.9528 17.0915 45.9091 17.6215L44.5524 27.3375C44.4648 27.735 44.5086 28 44.7712 28C44.99 28 45.2088 27.8233 45.3401 27.6909L52.6488 18.4164C53.3053 17.5773 54.1806 16.694 54.7933 16.694H55.1872C55.2747 16.694 55.3184 16.6057 55.3622 16.5174L55.406 16.164C55.406 16.0757 55.406 15.9874 55.2309 15.9874C55.0121 15.9874 54.5744 16.0315 53.5679 16.0315C52.6488 16.0315 52.0799 15.9874 51.8173 15.9874C51.6422 15.9874 51.5985 16.0315 51.5985 16.1199L51.5109 16.5174C51.5109 16.6057 51.5109 16.694 51.686 16.694H52.0361C52.5175 16.694 52.43 17.3123 51.8173 18.1073L47.0907 24.511ZM63.2398 24.5552C63.1523 24.4669 63.0648 24.511 63.021 24.5994C62.7584 24.9085 61.8394 26.1009 61.4455 26.4101C61.0078 26.8076 60.5264 27.0726 59.9575 27.0726H56.1062L57.7693 21.817H58.6446C59.87 21.817 60.5264 21.9937 60.5264 23.2303C60.5264 23.3186 60.5264 23.3628 60.614 23.4069H60.9203C61.0078 23.4069 61.0078 23.4069 61.0516 23.3186C61.1391 22.6562 61.6643 20.5363 61.9269 19.8738C61.9707 19.8297 61.9269 19.7855 61.8394 19.7855L61.533 19.6972C61.4455 19.6972 61.4455 19.7413 61.4017 19.7855C60.789 21.1546 60.1325 21.2429 59.3885 21.2429H57.9006L59.3448 16.7823H62.0144C62.102 16.7823 62.2333 16.8265 62.3208 16.9148L64.0714 18.9464C64.1589 19.0347 64.2027 19.0789 64.2902 19.0347L64.509 18.9464C64.5965 18.858 64.5965 18.858 64.5965 18.7697L64.0714 16.4732C63.9838 16.2082 63.9838 16.1199 63.6775 16.1199C63.5024 16.1199 63.0648 16.1199 62.4083 16.164C61.7081 16.164 60.789 16.164 59.5636 16.164H58.3382C57.9443 16.164 57.3754 16.164 56.8502 16.1199C56.3688 16.1199 55.9749 16.1199 55.8436 16.1199C55.7123 16.1199 55.6686 16.164 55.6248 16.2524L55.5373 16.6498C55.4935 16.7382 55.5373 16.8265 55.6248 16.8265H56.1937C56.7189 16.8265 57.3316 17.0473 57.0253 18.0189L54.3994 26.2334C54.2243 26.8076 53.8742 27.1609 53.2177 27.1609H52.6488C52.5613 27.1609 52.5613 27.205 52.5175 27.2492L52.43 27.6909C52.43 27.7792 52.43 27.8233 52.5175 27.8233C52.605 27.8233 52.9114 27.8233 53.2615 27.7792C53.6554 27.7792 54.1368 27.7792 54.662 27.7792H56.894C58.0756 27.7792 59.301 27.7792 60.2638 27.7792C61.2267 27.7792 61.9269 27.8233 62.0582 27.8233C62.277 27.8233 62.3645 27.7792 62.4521 27.5142L63.3274 24.9968C63.3711 24.8644 63.3274 24.8202 63.2836 24.8202L63.2398 24.5552ZM68.6229 22.082C69.1043 22.082 69.8483 21.9937 70.2422 22.9211C70.461 23.3186 71.949 26.7192 72.2116 27.1167C72.4304 27.5142 72.5179 27.6909 72.693 27.6909C72.9556 27.6909 73.2619 27.6467 74.2685 27.6467C75.1876 27.6467 75.4502 27.6909 75.6252 27.6909C75.7128 27.6909 75.7565 27.6025 75.8003 27.5142L75.844 27.1609C75.8878 27.0726 75.844 26.9842 75.7565 26.9842H75.3189C74.7062 26.9842 74.3123 26.7192 73.8309 25.9685C73.5245 25.4827 72.3866 23.0536 72.2553 22.877C72.0803 22.5237 71.8177 21.9937 71.2488 21.8612V21.7729C73.4808 21.5521 75.2751 20.1388 75.2751 18.4606C75.2751 16.0757 72.693 15.9432 71.2488 15.9432C70.7673 15.9432 68.973 15.9874 67.2224 15.9874C67.0474 15.9874 67.0036 16.0315 67.0036 16.1199L66.9161 16.4732C66.8723 16.5615 66.9161 16.6057 67.0474 16.6057H67.6163C68.1852 16.6057 68.3165 16.9148 68.1415 17.489L65.3843 26.101C65.253 26.5426 64.9467 26.8959 64.509 26.8959H64.0714C63.9401 26.8959 63.8963 26.9401 63.8963 27.0284L63.8088 27.4259C63.765 27.5142 63.8088 27.6025 63.8963 27.6025C64.1151 27.6025 64.7716 27.5584 65.9532 27.5584C67.4412 27.5584 68.1852 27.6025 68.4041 27.6025C68.4916 27.6025 68.5791 27.5584 68.6229 27.47L68.6666 27.0726C68.7104 26.9842 68.6666 26.9401 68.5791 26.9401H67.8789C67.3975 26.9401 67.2224 26.6309 67.485 25.7035L68.6229 22.082ZM70.2859 16.6498C70.5048 16.6057 70.6798 16.6057 70.9862 16.6057C72.6492 16.6057 73.1744 17.7098 73.1744 18.4606C73.1744 19.6972 72.3866 20.6688 71.5114 21.0662C70.3297 21.5521 69.4544 21.4637 68.7542 21.4637L70.2859 16.6498ZM84.8595 16.164C84.8595 16.0757 84.8158 16.0757 84.7283 16.0757L84.5094 16.0315C84.3781 16.0315 84.3344 16.0315 84.3344 16.1199C84.2468 16.4732 84.1593 16.694 84.0718 16.694C83.9843 16.694 83.8967 16.6498 83.853 16.6057C83.5904 16.3849 82.7589 15.8107 81.8398 15.8107C79.6078 15.8107 78.645 17.6215 78.645 18.858C78.645 20.6246 79.5203 21.5521 80.6144 22.7003C81.3584 23.5394 82.2337 24.2019 82.2337 25.306C82.2337 26.2776 81.4897 27.1167 80.3956 27.1167C79.3452 27.1167 77.9885 25.9243 78.4699 23.4511C78.4699 23.3628 78.4262 23.3186 78.3824 23.2744L78.1198 23.1861C78.0323 23.1861 77.9885 23.1861 77.9447 23.2744L76.6756 27.0284C76.6318 27.1609 76.6318 27.1609 76.7631 27.205L76.9819 27.2934C77.0695 27.3375 77.1132 27.2934 77.157 27.205C77.2883 26.9842 77.4633 26.6751 77.5509 26.5426C77.6384 26.4543 77.8135 26.4101 77.9885 26.5868C78.5574 27.205 79.3452 27.8675 80.4393 27.8675C82.2337 27.8675 83.8092 26.6751 83.8092 24.4669C83.8092 22.5678 82.6713 21.5962 81.8836 20.8013C81.0958 20.0063 80.3518 19.4322 80.3518 18.2397C80.3518 17.489 80.9207 16.5615 81.8836 16.5615C83.6341 16.5615 83.853 18.6372 83.7217 19.3438C83.7217 19.4322 83.7654 19.5205 83.8967 19.5205H84.2031C84.2906 19.5205 84.2906 19.4763 84.3344 19.4322L84.8595 16.164ZM86.26 25.7918C86.0412 26.6751 85.9099 27.0284 84.9033 27.0284H84.2468C84.1593 27.0284 84.1155 27.0726 84.1155 27.1609L84.028 27.5584C84.028 27.6467 84.0718 27.735 84.1593 27.735C84.3781 27.735 85.2534 27.6909 86.6977 27.6909C88.4482 27.6909 89.236 27.735 89.4548 27.735C89.6299 27.735 89.6299 27.6909 89.6737 27.5584L89.7174 27.205C89.7612 27.1167 89.7174 27.0284 89.6299 27.0284H89.0172C88.3169 27.0284 88.0544 26.6751 88.2732 25.836L90.4177 17.8864C90.6802 16.9148 91.0741 16.7382 91.7743 16.7382H92.212C92.3433 16.7382 92.3871 16.6498 92.3871 16.6057L92.4746 16.2524C92.5184 16.1199 92.4308 16.0315 92.2558 16.0315C92.0369 16.0315 91.2929 16.0757 89.8049 16.0757C88.4482 16.0757 87.5292 16.0315 87.3104 16.0315C87.1791 16.0315 87.0915 16.0757 87.0915 16.1199L87.004 16.5615C87.004 16.6498 87.0478 16.694 87.1791 16.694H87.9668C88.4045 16.694 88.6671 16.959 88.4482 17.8423L86.26 25.7918ZM96.8948 16.0757C95.1005 16.0757 94.3127 15.9432 93.9626 15.8549C93.8313 15.7666 93.7438 15.7224 93.7 15.7224C93.6125 15.7224 93.5687 15.8107 93.5249 15.8991C93.4812 15.9874 92.4308 18.4164 92.212 18.8139C92.1682 18.9022 92.1682 18.9464 92.2558 18.9905L92.5183 19.1672C92.6059 19.1672 92.6496 19.1672 92.7372 19.0789C93.1311 18.5931 94.0501 17.5773 94.619 17.1356C95.0129 16.8265 95.7569 16.7382 97.3325 16.7382H97.7701L95.1442 25.2618C94.7504 26.5426 94.444 27.0284 93.4812 27.0284H93.0435C92.9122 27.0284 92.8685 27.0726 92.8247 27.1609L92.7809 27.5584C92.7809 27.6467 92.8247 27.735 92.956 27.735C93.1311 27.735 94.0501 27.6909 95.7132 27.6909C97.3325 27.6909 97.9889 27.735 98.2515 27.735C98.3828 27.735 98.4266 27.6909 98.4703 27.5584L98.5579 27.205C98.5579 27.1167 98.5579 27.0284 98.4703 27.0284H97.7701C96.8948 27.0284 96.7198 26.6309 97.0699 25.571L99.7833 16.7382H100.133C100.921 16.7382 102.147 16.9148 102.54 17.1798C102.759 17.6215 103.109 18.6814 103.241 19.2555C103.328 19.4763 103.372 19.5205 103.459 19.5205L103.722 19.4763C103.81 19.4763 103.853 19.4322 103.853 19.2997C103.81 18.5931 103.985 16.0757 104.028 15.8107C104.028 15.7224 103.941 15.6782 103.897 15.6782C103.81 15.6782 103.81 15.7224 103.722 15.7666C103.416 15.9432 102.803 16.0757 101.271 16.0757H96.8948ZM109.411 24.1577C109.587 23.4069 109.762 23.0536 109.98 22.6562C110.199 22.2587 113.35 17.8423 113.613 17.489C113.963 17.0032 114.313 16.7382 114.882 16.7382H115.188C115.276 16.7382 115.32 16.694 115.32 16.5615L115.407 16.2082C115.407 16.1199 115.363 16.0315 115.232 16.0315C115.013 16.0315 114.488 16.0757 113.394 16.0757C112.431 16.0757 111.775 16.0315 111.556 16.0315C111.381 16.0315 111.337 16.0757 111.337 16.164L111.293 16.5615C111.25 16.6498 111.293 16.7382 111.381 16.7382H111.775C112.344 16.7382 112.563 17.0032 112.344 17.6656C112.169 18.1956 109.762 21.817 109.499 22.2145C109.368 22.4353 109.236 22.4353 109.149 22.1703L107.792 17.5331C107.705 17.1798 107.705 16.7823 108.23 16.7823H108.667C108.755 16.7823 108.799 16.7382 108.843 16.6498L108.886 16.2524C108.886 16.164 108.843 16.1199 108.711 16.1199C108.492 16.1199 107.923 16.164 106.435 16.164C105.079 16.164 104.597 16.1199 104.379 16.1199C104.291 16.1199 104.247 16.164 104.204 16.2524L104.116 16.6498C104.116 16.7382 104.16 16.7823 104.247 16.7823H104.641C105.21 16.7823 105.56 17.0032 105.691 17.4448L107.486 22.7445C107.573 22.9653 107.573 23.4069 107.53 23.6278L106.961 26.1893C106.873 26.6751 106.611 27.0726 105.823 27.0726H105.429C105.298 27.0726 105.254 27.1609 105.254 27.205L105.166 27.6025C105.166 27.735 105.21 27.7792 105.298 27.7792C105.516 27.7792 105.998 27.735 107.573 27.735C108.93 27.735 109.499 27.7792 109.762 27.7792C109.893 27.7792 109.937 27.6909 109.937 27.6025L110.024 27.205C110.024 27.1167 109.98 27.0726 109.893 27.0726H109.499C108.93 27.0726 108.711 26.9842 108.886 26.101L109.411 24.1577Z" fill="#202020"/>
</svg>
