<svg width="20" height="20" viewBox="0 0 20 20" fill="none" xmlns="http://www.w3.org/2000/svg">
<path d="M11.0291 0.000976562C12.1545 0.00283656 12.7248 0.00878657 13.2176 0.0234566L13.4117 0.0298066C13.6359 0.0377766 13.8571 0.0477767 14.1238 0.0602767C15.1879 0.109437 15.9138 0.277777 16.5513 0.525277C17.2104 0.779437 17.7671 1.12278 18.3229 1.67861C18.8779 2.23444 19.2213 2.79278 19.4763 3.45028C19.7229 4.08694 19.8913 4.81361 19.9413 5.87778C19.9532 6.14444 19.9628 6.36564 19.9707 6.58989L19.977 6.78397C19.9916 7.27672 19.9983 7.8471 20.0004 8.9725L20.0012 9.7182C20.0013 9.8093 20.0013 9.9033 20.0013 10.0003L20.0012 10.2824L20.0006 11.0281C19.9987 12.1535 19.9928 12.7238 19.9781 13.2166L19.9717 13.4107C19.9638 13.6349 19.9538 13.8561 19.9413 14.1228C19.8921 15.1869 19.7229 15.9128 19.4763 16.5503C19.2221 17.2094 18.8779 17.7661 18.3229 18.3219C17.7671 18.8769 17.2079 19.2203 16.5513 19.4753C15.9138 19.7219 15.1879 19.8903 14.1238 19.9403C13.8571 19.9522 13.6359 19.9618 13.4117 19.9697L13.2176 19.976C12.7248 19.9906 12.1545 19.9973 11.0291 19.9994L10.2834 20.0002C10.1923 20.0003 10.0983 20.0003 10.0013 20.0003L9.71917 20.0002L8.97347 19.9996C7.84807 19.9977 7.27769 19.9918 6.78494 19.9771L6.59086 19.9707C6.36661 19.9628 6.14541 19.9528 5.87875 19.9403C4.81458 19.8911 4.08958 19.7219 3.45125 19.4753C2.79291 19.2211 2.23541 18.8769 1.67958 18.3219C1.12375 17.7661 0.781253 17.2069 0.526253 16.5503C0.278753 15.9128 0.111253 15.1869 0.0612533 14.1228C0.0493733 13.8561 0.0396832 13.6349 0.0318332 13.4107L0.0255432 13.2166C0.0109132 12.7238 0.0042433 12.1535 0.0020833 11.0281L0.00195312 8.9725C0.00381312 7.8471 0.00976314 7.27672 0.0244331 6.78397L0.0307832 6.58989C0.0387532 6.36564 0.0487533 6.14444 0.0612533 5.87778C0.110413 4.81278 0.278753 4.08778 0.526253 3.45028C0.780413 2.79194 1.12375 2.23444 1.67958 1.67861C2.23541 1.12278 2.79375 0.780277 3.45125 0.525277C4.08875 0.277777 4.81375 0.110277 5.87875 0.0602767C6.14541 0.0483967 6.36661 0.0387066 6.59086 0.0308566L6.78494 0.0245667C7.27769 0.00993665 7.84807 0.00326674 8.97347 0.00110674L11.0291 0.000976562ZM10.0013 5.00028C7.23835 5.00028 5.00125 7.23981 5.00125 10.0003C5.00125 12.7632 7.24078 15.0003 10.0013 15.0003C12.7642 15.0003 15.0013 12.7607 15.0013 10.0003C15.0013 7.23738 12.7617 5.00028 10.0013 5.00028ZM10.0013 7.00028C11.6582 7.00028 13.0013 8.3429 13.0013 10.0003C13.0013 11.6572 11.6586 13.0003 10.0013 13.0003C8.34437 13.0003 7.00125 11.6576 7.00125 10.0003C7.00125 8.3434 8.34387 7.00028 10.0013 7.00028ZM15.2513 3.50028C14.562 3.50028 14.0013 4.06018 14.0013 4.74943C14.0013 5.43867 14.5612 5.99944 15.2513 5.99944C15.9405 5.99944 16.5013 5.43954 16.5013 4.74943C16.5013 4.06018 15.9396 3.49941 15.2513 3.50028Z" fill="#202020"/>
</svg>
