<svg width="28" height="33" viewBox="0 0 28 33" fill="none" xmlns="http://www.w3.org/2000/svg">
<path d="M23.3381 17.0567C23.3238 14.4348 24.5098 12.4559 26.9102 10.9985C25.5671 9.07668 23.5382 8.01935 20.8591 7.81216C18.3229 7.61213 15.551 9.29101 14.5365 9.29101C13.4649 9.29101 11.0073 7.88361 9.07839 7.88361C5.09195 7.9479 0.855469 11.0628 0.855469 17.3996C0.855469 19.2714 1.19839 21.2051 1.88423 23.2007C2.79868 25.8226 6.09928 32.2523 9.54276 32.1452C11.3431 32.1023 12.6147 30.8664 14.958 30.8664C17.2299 30.8664 18.4087 32.1452 20.4162 32.1452C23.8882 32.0952 26.8745 26.2512 27.7461 23.6222C23.0881 21.4289 23.3381 17.1924 23.3381 17.0567ZM19.2945 5.326C21.2449 3.01129 21.0663 0.903765 21.0091 0.146484C19.2874 0.246503 17.2942 1.31813 16.1583 2.6398C14.908 4.05434 14.1722 5.80466 14.3293 7.77644C16.194 7.91933 17.8943 6.96201 19.2945 5.326Z" fill="#202020"/>
</svg>
